<svg width="80" height="80" viewBox="0 0 80 80" fill="none" xmlns="http://www.w3.org/2000/svg">
<circle cx="40" cy="40" r="40" fill="#F3EAF5"/>
<path d="M40 25.3333V54.6666" stroke="#774297" stroke-width="2" stroke-linecap="round" stroke-linejoin="round"/>
<path d="M46.6667 30.6667H36.6667C35.429 30.6667 34.242 31.1584 33.3668 32.0335C32.4917 32.9087 32 34.0957 32 35.3334C32 36.571 32.4917 37.758 33.3668 38.6332C34.242 39.5084 35.429 40 36.6667 40H43.3333C44.571 40 45.758 40.4917 46.6332 41.3669C47.5083 42.242 48 43.429 48 44.6667C48 45.9044 47.5083 47.0914 46.6332 47.9665C45.758 48.8417 44.571 49.3334 43.3333 49.3334H32" stroke="#774297" stroke-width="2" stroke-linecap="round" stroke-linejoin="round"/>
</svg>
