<svg width="147" height="143" viewBox="0 0 147 143" fill="none" xmlns="http://www.w3.org/2000/svg">
<path fill-rule="evenodd" clip-rule="evenodd" d="M65.9604 38.1838C78.6047 42.9647 92.268 45.005 105.22 48.9291C108.462 49.9113 118.138 51.2324 118.809 54.357C119.202 56.1839 117.104 59.1066 116.249 60.6476C114.784 63.2875 113.443 65.9213 112.162 68.6484C106.3 81.1359 100.953 93.6025 94.2592 105.738C93.2509 107.563 90.8549 115.691 88.6584 112.48C87.6627 111.024 87.7214 109.101 85.7809 107.991C84.782 107.419 81.5439 107.759 82.0543 105.885C82.7271 106 83.4009 106.116 84.0744 106.231C83.2793 105.027 82.9615 103.572 81.9482 102.498C81.3185 101.83 80.3681 101.673 79.8567 100.873C79.1499 99.768 79.5081 98.196 79.0877 96.9814C78.6698 95.7701 77.7181 94.7609 77.0353 93.6883C72.987 87.3309 70.4368 80.5487 67.4852 73.6905C64.5649 66.9043 61.0327 60.5021 58.5572 53.524C55.942 46.1535 53.1567 38.8407 50.0664 31.6502C52.3925 31.4058 54.6991 33.3438 56.6171 34.2896C59.632 35.776 62.8083 36.992 65.9604 38.1838ZM75.3145 113.434C74.702 113.168 74.1803 112.786 73.7494 112.287C78.4407 108.454 76.2922 113.565 75.3145 113.434ZM70.7656 108.81C68.6012 109.99 66.9687 110.52 64.96 110.037C64.7696 109.991 64.8008 109.272 64.4618 109.209C64.1658 109.154 63.7945 109.402 63.5389 109.345C62.6688 109.153 61.512 110.321 61.0237 108.893C63.765 107.301 66.2774 104.983 69.33 103.951C73.5724 102.518 74.4101 106.823 70.7656 108.81ZM58.5728 102.869C55.5885 104.352 53.3925 106.65 49.9312 107.034C46.6823 107.395 43.561 106.487 40.6337 105.278C46.4353 102.064 52.8785 100.168 58.6883 97.0119C60.5799 95.9843 62.8931 93.927 65.2108 93.9635C67.7859 94.0044 68.472 96.1545 69.6831 97.968C65.9724 99.5852 62.198 101.069 58.5728 102.869ZM36.7612 99.2403C33.8976 100.679 31.1692 102.965 27.9889 100.945C27.4754 100.619 27.2208 101.131 26.9492 99.8079C26.6626 98.4124 27.7469 97.204 28.7476 96.4439C31.1004 94.6573 34.9702 94.4976 37.7244 93.6475C42.118 92.2924 46.4383 90.2917 50.681 88.5278C53.6186 87.3069 56.515 85.4804 59.6869 84.9278C62.1359 84.5012 65.5261 85.7732 62.3668 88.0748C59.4898 90.1715 54.6453 91.1391 51.3194 92.5543C46.4032 94.6462 41.5315 96.8425 36.7612 99.2403ZM30.4395 86.1946C30.6831 86.3399 30.9268 86.4851 31.1704 86.6304C31.1361 86.6311 32.1041 85.4054 32.4143 85.3012C33.921 84.797 35.4932 84.5217 37.0132 84.0622C40.5157 83.0033 43.9478 81.5344 47.2737 80.0272C49.983 78.7995 52.6507 77.1717 55.6301 76.6899C58.2095 76.2725 58.5975 76.7078 59.3376 79.0232C52.8779 80.5986 46.1919 82.0902 40.165 84.9574C36.2412 86.8236 32.3097 90.4908 29.1155 86.3877C29.5571 86.3233 29.9979 86.259 30.4395 86.1946ZM32.0457 75.2361C33.9344 76.0223 37.8239 73.0003 39.6961 72.3367C41.7289 71.6154 43.6365 70.9161 45.5348 69.9224C47.2178 69.0408 52.6029 65.3744 54.4951 67.1632C57.3953 69.9035 49.0109 72.5809 47.698 73.0719C42.1915 75.1309 36.4532 77.1654 31.2845 79.9462C31.5383 78.3764 31.7921 76.8066 32.0457 75.2361ZM37.1297 62.2862C37.9107 63.6893 49.3846 55.0187 50.6006 58.99C51.5343 62.0369 39.0403 66.7154 36.6604 67.0085C36.8553 65.4531 37.9859 63.827 37.1297 62.2862ZM39.1301 51.7816C38.663 48.6812 39.0891 48.5959 41.5417 47.6949C43.4122 47.0077 45.791 45.275 46.0972 48.7043C46.3593 51.6407 39.6023 54.9101 39.1301 51.7816ZM41.1686 40.2249C41.3783 38.448 43.2789 40.3073 43.5096 41.1286C44.1235 43.3141 42.2748 43.2597 40.6073 43.6664C40.8204 42.5237 41.0078 41.3749 41.1686 40.2249ZM59.2961 22.8502C58.8596 22.5379 56.9134 22.8527 56.3232 22.7935C54.8716 22.6469 54.8157 21.5938 53.3481 23.0038C53.2424 22.9415 53.2229 22.1553 53.1215 22.1437C53.0704 22.1376 51.766 21.9938 51.3181 21.8481C50.237 21.4969 49.2519 21.1354 48.211 20.6175C47.1047 20.0677 45.9117 19.1691 44.7131 18.8086C44.2076 18.6569 43.7565 18.3768 43.2042 18.4273C41.7716 18.5589 42.3942 19.3912 41.2305 19.8704C40.5137 20.1657 39.7673 19.4594 38.8819 20.0585C38.1167 20.5757 37.906 21.833 37.6963 22.6018C36.9346 25.3993 36.5303 28.3089 35.8038 31.1256C32.0883 45.5293 27.3229 59.6769 23.8503 74.1472C22.1781 81.118 20.378 88.1656 19.7431 95.2951C19.2858 100.437 17.3295 108.263 21.625 112.242C24.7482 115.135 29.6808 115.51 33.7328 116.287C39.8299 117.458 45.6862 119.503 51.8251 120.582C59.1454 121.868 66.307 123.335 73.5428 125.001C76.6287 125.712 79.5946 127.096 82.6536 127.735C84.5245 128.127 86.7797 126.13 87.7727 127.831C89.2747 124.865 93.0737 125.672 95.0824 123.351C96.2639 121.986 96.8202 119.729 97.7069 118.186C99.0376 115.874 100.554 113.659 101.929 111.37C107.385 102.28 112.212 93.0211 116.882 83.5477C121.344 74.5008 126.965 65.6105 130.276 56.0911C131.591 52.312 131.138 48.7956 128.866 45.5291C127.207 43.1466 123.788 39.7721 120.712 42.3676C121.521 39.9178 115.847 38.8961 114.192 38.8594C114.167 38.8593 114.259 40.5671 113.816 40.6319C113.974 40.6089 111.632 37.3308 110.879 37.0208C108.642 36.0979 105.938 35.0441 103.588 34.4083C101.432 33.8255 99.3005 33.7962 97.1744 33.0741C94.597 32.1994 92.1382 31.0162 89.5548 30.1531C87.0604 29.3199 84.2577 28.2994 81.6395 27.9468C79.369 27.6408 77.4692 27.9357 75.2801 27.0606C72.5719 25.9776 70.2875 25.3521 67.3503 24.8672C64.8095 24.4479 61.4108 24.3691 59.2961 22.8502Z" fill="#DEC5E3"/>
</svg>
