<svg width="129" height="48" viewBox="0 0 129 48" fill="none" xmlns="http://www.w3.org/2000/svg">
<path d="M10.016 35.384C8.24533 35.384 6.528 35.1493 4.864 34.68C3.22133 34.1893 1.89867 33.56 0.896 32.792L2.656 28.888C3.616 29.592 4.75733 30.1573 6.08 30.584C7.40267 31.0107 8.72533 31.224 10.048 31.224C11.52 31.224 12.608 31.0107 13.312 30.584C14.016 30.136 14.368 29.5493 14.368 28.824C14.368 28.2907 14.1547 27.8533 13.728 27.512C13.3227 27.1493 12.7893 26.8613 12.128 26.648C11.488 26.4347 10.6133 26.2 9.504 25.944C7.79733 25.5387 6.4 25.1333 5.312 24.728C4.224 24.3227 3.28533 23.672 2.496 22.776C1.728 21.88 1.344 20.6853 1.344 19.192C1.344 17.8907 1.696 16.7173 2.4 15.672C3.104 14.6053 4.16 13.7627 5.568 13.144C6.99733 12.5253 8.736 12.216 10.784 12.216C12.2133 12.216 13.6107 12.3867 14.976 12.728C16.3413 13.0693 17.536 13.56 18.56 14.2L16.96 18.136C14.8907 16.9627 12.8213 16.376 10.752 16.376C9.30133 16.376 8.224 16.6107 7.52 17.08C6.83733 17.5493 6.496 18.168 6.496 18.936C6.496 19.704 6.89067 20.28 7.68 20.664C8.49067 21.0267 9.71733 21.3893 11.36 21.752C13.0667 22.1573 14.464 22.5627 15.552 22.968C16.64 23.3733 17.568 24.0133 18.336 24.888C19.1253 25.7627 19.52 26.9467 19.52 28.44C19.52 29.72 19.1573 30.8933 18.432 31.96C17.728 33.0053 16.6613 33.8373 15.232 34.456C13.8027 35.0747 12.064 35.384 10.016 35.384ZM22.7423 12.6H27.9263V35H22.7423V12.6ZM53.4663 12.6V35H49.2103L38.0423 21.4V35H32.9223V12.6H37.2103L48.3463 26.2V12.6H53.4663ZM73.198 30.2H62.798L60.814 35H55.502L65.486 12.6H70.606L80.622 35H75.182L73.198 30.2ZM71.566 26.264L68.014 17.688L64.462 26.264H71.566ZM115.263 12.6L107.935 35H102.367L97.4393 19.832L92.3513 35H86.8153L79.4553 12.6H84.8313L89.8873 28.344L95.1673 12.6H99.9673L105.087 28.472L110.303 12.6H115.263Z" fill="black"/>
<circle cx="125" cy="30" r="4" fill="#774297"/>
</svg>
