<svg width="70" height="70" viewBox="0 0 70 70" fill="none" xmlns="http://www.w3.org/2000/svg">
<circle cx="35" cy="35" r="34" stroke="#774297" stroke-width="2"/>
<path d="M41.6666 21.6667H28.3333C24.6514 21.6667 21.6666 24.6515 21.6666 28.3334V41.6667C21.6666 45.3486 24.6514 48.3334 28.3333 48.3334H41.6666C45.3485 48.3334 48.3333 45.3486 48.3333 41.6667V28.3334C48.3333 24.6515 45.3485 21.6667 41.6666 21.6667Z" stroke="#774297" stroke-width="2" stroke-linecap="round" stroke-linejoin="round"/>
<path d="M40.3333 34.1599C40.4979 35.2696 40.3084 36.4029 39.7917 37.3986C39.275 38.3943 38.4575 39.2018 37.4555 39.7061C36.4535 40.2105 35.3179 40.386 34.2104 40.2078C33.1028 40.0296 32.0797 39.5067 31.2865 38.7135C30.4932 37.9202 29.9703 36.8971 29.7921 35.7895C29.6139 34.682 29.7894 33.5464 30.2938 32.5444C30.7981 31.5424 31.6056 30.7249 32.6013 30.2082C33.5971 29.6916 34.7304 29.502 35.84 29.6666C36.9719 29.8344 38.0198 30.3619 38.8289 31.171C39.6381 31.9801 40.1655 33.028 40.3333 34.1599Z" stroke="#774297" stroke-width="2" stroke-linecap="round" stroke-linejoin="round"/>
<path d="M42.3334 27.6667H42.3467" stroke="#774297" stroke-width="2" stroke-linecap="round" stroke-linejoin="round"/>
</svg>
