<svg width="36" height="24" viewBox="0 0 36 24" fill="none" xmlns="http://www.w3.org/2000/svg">
<path fill-rule="evenodd" clip-rule="evenodd" d="M34.7514 4.18851C33.0758 3.61016 31.0028 2.48075 29.1401 2.86574C27.1606 3.27453 26.3637 5.14547 24.9244 6.27023C21.0115 9.32863 18.7323 4.77035 16.5823 2.27229C14.5516 -0.0864007 12.0743 -0.658941 9.20926 0.790418C8.0678 1.36819 3.25892 4.01547 4.09763 5.71162C4.70066 6.93219 7.0765 5.83646 7.8869 5.56993C9.64616 4.99216 11.2799 4.4864 13.0791 5.32896C16.4543 6.90839 17.3299 11.2396 21.4133 11.9149C25.6358 12.6135 25.7742 8.8217 28.7875 7.3944C30.8077 6.43804 32.215 8.13128 34.1638 7.79391C36.0208 7.4728 36.8799 4.92248 34.7514 4.18851Z" fill="#DEC5E3"/>
<path fill-rule="evenodd" clip-rule="evenodd" d="M0.987163 19.1295C2.47374 19.4146 3.44398 16.8681 4.37439 16.2222C5.91793 15.1516 8.59398 14.9357 10.1657 16.0134C13.235 18.1168 12.1772 22.6578 16.5475 23.8415C20.4535 24.8996 22.2935 20.3559 25.5815 19.2247C27.4932 18.5668 29.5916 18.1362 28.8456 15.7759C28.3305 14.1437 26.8126 13.7245 25.1625 14.3515C22.3266 15.428 21.3637 19.8138 18.0016 19.8923C14.5231 19.9734 14.1458 15.5444 12.6525 13.6152C10.3758 10.6749 5.69559 9.96461 3.03605 12.7761C2.23304 13.6244 -1.84388 18.5879 0.987163 19.1295Z" fill="#DEC5E3"/>
</svg>
