<svg width="589" height="465" viewBox="0 0 589 465" fill="none" xmlns="http://www.w3.org/2000/svg">
<path d="M52.1789 448.441L39.2907 430.189L229.292 351.198L233.932 382.753L52.1789 448.441Z" fill="#ECCBF1"/>
<path d="M175 307L189.5 324L7.5 420L-1.6416e-06 389L175 307Z" fill="#ECCBF1"/>
<path fill-rule="evenodd" clip-rule="evenodd" d="M360.993 177.132C366.77 181.736 365.85 190.796 364.112 197.378C361.551 207.07 356.45 216.042 350.632 223.775C340.31 237.495 322.787 252.9 306.635 240.855C292.251 230.128 283.178 208.484 280.046 190.252C279.078 184.618 277.789 176.223 282.337 171.987C289.061 165.726 300.921 166.865 309.038 167.671C314.383 168.201 319.541 170.003 324.823 169.158C337.096 167.191 350.756 168.972 360.993 177.132Z" fill="#774297"/>
<path fill-rule="evenodd" clip-rule="evenodd" d="M112.148 248.927C123.85 265.248 143.744 267.827 161.414 267.667C172.024 267.57 182.655 266.692 193.057 264.314C198.665 263.032 204.235 261.334 209.654 259.295C213.233 257.947 218.561 257.273 220.085 253.057C224.102 241.931 221.146 227.98 219.492 216.687C218.65 210.944 218.018 205.166 217.2 199.417C216.676 195.74 216.426 191.67 215.023 188.23C213.382 184.199 211.309 185.004 207.837 186.117C203.054 187.653 198.144 188.291 193.226 189.116C181.225 191.131 170.754 195.194 159.848 200.953C149.063 206.647 138.601 212.268 128.981 220.186C124.108 224.198 119.908 228.553 115.995 233.667C112.973 237.618 108.462 243.785 112.148 248.927ZM163.3 321.418C163.394 323.176 181.733 317.871 184.147 317.276C199.982 313.37 216.131 308.923 231.081 301.867C245.035 295.281 257.33 287.747 268.31 276.046C273.429 270.592 278.032 264.848 282.438 258.732C284.645 255.666 287.662 256.022 290.124 253.428C292.339 251.094 294.037 249.271 293.345 245.781C287.811 247.384 277.592 257.462 271.856 252.373C268.586 249.473 273.121 246.442 275.214 244.762C279.15 241.601 282.516 237.702 285.644 233.609C280.273 234.754 275.272 236.966 270.597 240.045C268.52 241.413 261.401 246.373 259.744 241.645C258.724 238.734 263.551 235.076 265.056 233.465C268.752 229.512 272.742 224.896 274.704 219.58C269.852 218.342 265.28 222.465 261.976 225.823C258.308 229.55 253.813 233.463 250.738 237.759C249.151 239.974 248.806 242.591 247.567 244.981C246.172 247.669 243.942 249.974 241.81 251.963C237.703 255.796 232.899 258.619 227.968 260.953C216.7 266.287 204.623 270.062 192.612 272.71C186.72 274.009 180.973 274.608 174.993 274.828C170.344 275 168.288 276.528 166.513 281.236C161.711 293.977 162.583 307.993 163.3 321.418ZM301.223 224.338C303.91 227.103 307.402 228.837 310.211 231.495C312.682 233.834 315.533 236.329 318.292 238.22C321.237 240.238 323.437 238.824 326.089 236.997C329.202 234.854 332.78 233.986 335.986 232.068C347.071 225.435 360.633 209.181 358.563 194.256C357.686 187.931 354.712 181.707 349.311 178.837C344.405 176.231 337.275 174.785 332.027 176.963C329.067 178.192 326.949 180.905 325.052 183.573C322.841 186.682 321.994 186.192 319.742 183.193C315.711 177.828 309.065 173.121 302.495 173.235C299.229 173.291 295.986 174.048 293.044 175.538C292.646 175.741 292.424 176.352 292.023 176.559C291.532 176.814 290.725 176.285 290.384 176.522C289.522 177.122 288.662 178.995 288.166 179.945C286.172 183.757 282.583 191.235 286.2 194.445C286.203 194.447 286.039 198.789 286.089 199.284C286.344 201.874 287.159 204.013 288.208 206.382C291.359 213.499 296.011 218.979 301.223 224.338ZM295.864 284.554C298.41 285.425 301.152 276.653 298.71 275.253C296.382 273.918 293.56 283.768 295.864 284.554ZM335.847 274.067C336.729 277.38 337.101 281.14 339.257 283.837C341.231 281.262 341.426 276.51 339.511 273.862C338.418 272.352 334.883 270.447 335.847 274.067ZM254.384 216.014C254.398 216.098 251.321 217.716 252.822 219.486C254.874 221.903 254.592 217.198 254.384 216.014ZM241.667 189.01C241.702 192.36 248.152 191.551 248.107 188.182C248.05 184.035 241.629 185.459 241.667 189.01ZM249.366 161.01C248.728 157.943 237.508 153.676 237.813 159.022C237.967 161.702 250.721 167.531 249.366 161.01ZM364.389 265.031C365.647 266.693 367.433 267.349 368.941 268.625C370.522 269.962 371.652 271.697 373.032 273.267C376.824 277.578 381.389 281.12 385.48 285.079C393.001 292.358 400.205 300.184 408.544 306.357C423.445 317.388 440.725 323.421 457.879 328.704C459.3 329.141 463.394 330.908 464.8 329.592C466.316 328.173 465.545 323.18 465.475 321.292C465.191 313.552 464.37 305.72 464.459 297.991C464.496 294.817 465.341 290.304 463.834 287.399C462.152 284.155 457.456 283.206 454.551 281.985C445.721 278.274 437.215 272.015 429.415 266.218C419.827 259.091 410.144 251.846 400.276 245.193C390.609 238.675 379.946 234.311 369.163 230.588C368.663 231.742 373.809 235.456 374.397 235.977C377.218 238.474 380.287 241.063 382.381 244.359C383.864 246.693 385.384 251.973 381.29 252.108C379.306 252.174 376.372 250.064 374.573 249.381C371.601 248.253 368.538 247.462 365.429 246.947C368.102 250.183 377.161 255.995 375.513 261.376C373.914 266.598 364.663 260.504 361.479 260.504C362.001 262.325 363.313 263.609 364.389 265.031ZM473.673 279.605C479.597 281.896 485.669 283.198 491.783 284.677C497.611 286.087 502.998 287.149 508.967 286.323C517.209 285.184 526.329 281.431 527.374 271.134C528.613 258.935 520.777 247.724 514.048 238.972C505.859 228.323 496.663 218.803 486.698 210.183C476.743 201.571 465.999 193.978 454.742 187.569C446.178 182.693 436.507 179.732 427.452 176.072C425.729 175.377 420.965 172.93 419.353 174.957C418.051 176.597 419.823 179.328 420.417 180.85C421.575 183.818 421.734 186.805 422.033 189.991C423.368 204.22 424.975 218.445 425.714 232.736C425.92 236.719 426.283 240.885 426.072 244.87C425.955 247.077 424.91 249.889 425.606 252.044C426.944 256.187 433.068 258.929 436.314 260.78C442.125 264.092 448.279 266.565 454.149 269.733C460.597 273.214 466.874 276.975 473.673 279.605ZM391.514 187.148C389.888 186.903 387.452 186.416 386.002 187.574C384.112 189.085 384.608 191.187 386.354 192.282C387.733 193.148 390.96 193.385 392.322 192.599C394.643 191.261 394.25 187.563 391.514 187.148ZM382.508 220.097C383.822 222.503 388.625 224.082 388.207 219.591C387.848 215.746 380.088 215.666 382.508 220.097ZM384.291 152.309C382.179 153.209 378.345 153.979 377.719 156.966C377.136 159.747 379.532 159.563 381.262 158.798C382.684 158.17 389.021 152.261 384.291 152.309ZM53.3278 258.385C54.5615 253.106 53.6219 247.262 54.3027 241.855C54.9633 236.615 56.1518 231.798 57.8571 226.859C61.6334 215.924 65.9596 206.08 72.0806 196.483C83.6088 178.411 96.9838 162.492 113.135 149.291C129.079 136.26 146.735 125.669 165.438 118.247C185.271 110.375 205.235 107.636 226.15 106.127C232.396 105.677 238.636 105.143 244.846 104.275C249.385 103.641 255.075 102.86 259.563 104.389C262.383 105.35 263.958 108.053 260.886 109.827C258.709 111.085 255.858 111.235 253.453 111.57C256.358 121.718 261.085 131.901 268.577 138.888C275.89 145.711 285.677 148.049 294.907 149.779C299.912 150.717 305.517 151.443 310.599 151.038C313.813 150.783 316.32 149.147 317.617 152.786C318.517 155.315 318.943 158.089 320.129 154.271C321.532 149.758 322.22 149.787 326.585 148.505C335.51 145.883 345.742 143.491 353.529 137.822C361.607 131.939 364.417 122.424 368.926 113.563C370.042 111.373 373.406 106.941 371.687 104.431C370.115 102.136 365.003 102.365 362.662 102.126C360.191 101.873 357.706 101.862 355.227 101.757C353.791 101.696 350.903 102.343 351.48 99.9845C352.352 96.4301 361.691 96.8857 364.01 96.8279C368.322 96.7215 372.694 96.8312 376.985 97.3529C398.261 99.9399 419.728 104.723 440.316 111.103C480.261 123.478 518.947 146.282 548.098 179.134C576.08 210.669 584.946 263.146 567.743 303.411C558.803 324.337 539.402 332.934 520.595 339.876C510.675 343.538 500.171 346.403 489.626 345.712C484.566 345.38 479.764 343.882 474.829 342.753C472.676 342.26 470.227 341.475 468.016 341.674C466.342 341.824 464.735 343.513 463.165 342.615C462.051 341.978 461.566 340.15 460.205 339.37C458.57 338.436 456.588 338.098 454.823 337.627C449.915 336.316 445.163 334.191 440.366 332.448C435.406 330.645 430.724 328.324 425.965 325.977C423.561 324.792 418 319.973 416.434 323.496C415.72 325.104 416.024 328.205 415.85 329.892C415.545 332.841 415.187 335.784 414.796 338.721C413.934 345.187 412.902 351.625 411.844 358.056C409.935 369.66 407.475 380.768 403.362 391.683C400.078 400.398 397.194 410.276 391.096 417.209C388.434 420.235 384.801 421.597 380.983 420.646C376.639 419.564 374.477 415.226 371.841 411.719C366.039 404.001 356.462 398.088 347.618 395.959C336.787 393.352 326.238 397.165 315.901 400.405C304.966 403.834 293.834 407.1 283.101 411.221C273.1 415.061 262.301 420.733 251.454 420.239C241.995 419.809 233.16 411.345 226.339 404.893C219.487 398.414 210.921 388.926 201.069 389.689C196.177 390.068 191.72 392.663 186.955 393.718C181.724 394.876 176.158 395.04 170.839 395.472C164.235 396.007 149.463 394.115 147.02 385.381C146.658 384.085 146.655 381.417 148.212 380.898C149.643 380.422 150.375 382.262 151.731 382.178C154.49 382.007 156.646 376.717 158.162 374.669C164.279 366.402 172.67 360.236 179.535 352.768C187.286 344.336 193.903 334.119 199.744 324.043C197.103 323.288 194.255 324.541 191.699 325.136C188.594 325.859 185.568 326.734 182.508 327.66C179.136 328.681 175.715 329.382 172.293 330.161C169.739 330.74 166.349 330.915 164.044 332.324C162.032 333.554 160.909 334.874 158.411 335.231C155.87 335.593 153.262 335.288 150.71 335.269C143.807 335.218 136.919 335.076 130.049 334.274C105.773 331.439 80.0401 320.149 65.4428 297.744C61.4724 291.649 58.2739 284.898 56.2526 277.734C54.6751 272.14 51.955 264.258 53.3278 258.385Z" fill="#232323"/>
<path fill-rule="evenodd" clip-rule="evenodd" d="M281.017 0.234941C274.637 0.334224 268.658 2.41419 262.713 4.77877C257.486 6.8579 251.913 8.7815 247.686 12.9315C240.083 20.3967 238.102 32.7574 236.858 43.3326C235.306 56.5289 240.471 67.6005 244.817 79.5392C248.883 90.7052 256.344 99.7506 265.213 106.643C269.86 110.254 274.995 112.433 280.368 114.344C285.826 116.285 291.111 118.885 296.95 118.875C305.818 118.861 317.17 114.23 320.948 104.625C322.667 100.251 320.993 99.466 317.552 101.843C312.559 105.291 307.747 109.013 301.913 110.543C290.599 113.51 277.048 108.913 267.127 102.847C257.21 96.7821 250.552 87.6721 246.102 76.3283C241.613 64.8843 239.868 53.6075 241.6 41.27C243.067 30.8147 245.986 21.2646 254.555 15.589C273.054 3.33834 297.978 4.32538 314.428 20.2461C316.685 22.4287 318.915 24.5525 321.24 26.6366C322.718 27.9612 324.458 29.5505 324.243 31.8415C324.06 33.8031 320.255 41.3668 324.837 39.0436C328.55 37.1597 330.568 33.4772 335.066 33.0213C339.854 32.5356 345.566 36.5797 346.998 41.6696C348.364 46.5262 345.928 53.1707 342.112 55.9564C339.749 57.6814 337.149 57.415 334.466 57.3455C333.134 57.3107 329.427 56.835 328.546 58.383C326.986 61.1207 332.488 63.9982 334.263 64.6039C338.583 66.0774 343.689 64.3432 346.172 60.103C348.697 55.7925 350.425 50.8036 350.773 45.6682C351.105 40.7479 350.09 35.7665 347.45 31.7265C344.642 27.43 338.918 22.6132 333.786 24.1057C331.559 24.7536 329.77 27.2836 327.584 27.7643C326.204 28.0671 326.785 28.2839 325.642 27.1595C324.916 26.4463 324.231 25.13 323.561 24.2844C319.71 19.4229 315.901 14.2346 311.188 10.3435C302.736 3.36647 291.502 0.0711255 281.017 0.234941ZM304.389 96.6201C303.389 94.0438 301.553 98.6397 301.01 99.4082C299.935 100.928 297.408 102.111 297.517 104.353C297.697 108.055 302.286 107.368 303.816 105.437C305.558 103.239 305.375 99.1645 304.389 96.6201ZM271.787 79.0937C269.311 83.3355 272.328 87.9143 274.285 91.6686C276.157 95.2582 277.895 99.3161 280.074 102.691C283.69 108.294 291.559 102.233 291.793 96.474C291.971 92.0658 289.131 93.9847 287.309 95.6311C285.432 97.3269 284.543 97.7491 282.576 95.897C278.62 92.1695 276.842 85.9368 274.107 81.2175C273.564 80.2819 272.582 79.7191 271.787 79.0937ZM264.729 80.4576C264.091 82.509 265.43 87.9445 261.707 87.401C259.65 87.101 259.211 83.8554 258.129 82.4388C254.493 77.6769 255.608 86.6834 256.558 88.9376C258.653 93.9057 264.515 97.3288 267.423 91.0261C268.505 88.6815 268.5 85.7225 267.95 83.202C267.651 81.8294 265.907 76.6694 264.729 80.4576ZM297.928 70.7422C298.258 73.1357 300.304 77.9043 297.806 79.6165C295.608 81.1238 291.78 77.8507 290.087 76.4841C288.328 75.0639 284.342 70.9899 284.186 76.0598C284.106 78.6441 286.459 81.7447 288.137 83.2336C291.72 86.4087 299.162 89.2566 301.802 83.2804C303.24 80.0249 302.453 75.3903 301.503 72.1097C300.732 69.4509 297.132 64.961 297.928 70.7422ZM250.947 57.6383C249.49 59.4994 246.035 63.6693 247.913 66.3198C250.11 69.4179 253.678 63.7337 255.085 62.1516C256.353 60.7264 259.02 56.6681 257.883 54.5154C256 50.9533 252.227 56.0042 250.947 57.6383ZM273.859 49.6241C269.094 53.0371 275.359 55.4946 278.073 55.8001C281.358 56.1684 285.557 56.4128 288.574 54.6407C292.85 52.1287 291.425 48.3343 287.28 47.4259C283.03 46.4953 277.557 46.9751 273.859 49.6241ZM335.803 38.7594C332.299 39.509 328.297 40.4846 327.103 44.6847C325.871 49.0255 327.641 50.4661 331.22 49.4888C334.532 48.5844 339.478 47.6743 341.35 44.1179C343.587 39.869 339.052 38.0652 335.803 38.7594Z" fill="#232323"/>
<path fill-rule="evenodd" clip-rule="evenodd" d="M528.602 132.031C529.778 136.206 535.73 138.975 538.698 141.513C549.079 150.393 559.223 159.638 568.608 169.772C573.479 175.032 577.166 181.395 581.391 187.245C582.421 188.673 584.247 191.871 586.269 191.57C588.487 191.242 588.935 187.042 588.864 185.208C588.622 178.953 583.426 172.913 579.721 168.606C575.554 163.763 571.098 159.044 566.547 154.634C561.536 149.78 556.099 145.607 550.559 141.521C545.118 137.51 539.901 132.876 534.243 129.242C531.578 127.531 527.152 126.879 528.602 132.031ZM165.722 92.3794C161.389 92.5296 157.16 94.0923 153.074 95.543C144.085 98.7347 135.523 103.162 127.081 107.79C112.28 115.901 98.0359 125.715 84.9797 136.874C82.2503 139.206 79.4523 141.096 76.4846 143.003C74.585 144.225 71.8767 145.715 71.145 148.205C69.2862 154.533 78.6685 148.181 80 147.273L81.8729 145.996C109.653 127.066 137.4 108.674 168.823 97.8177C170.497 97.2393 171.017 95.5977 170.139 93.9703C169.187 92.2068 167.332 92.3238 165.722 92.3794ZM529.867 105.625C530.067 107.552 532.053 107.99 533.391 108.609C538.387 110.916 543.507 112.884 548.49 115.229C557.736 119.582 566.228 125.899 575.88 129.202C578.086 129.959 578.411 127.511 577.821 125.846C577.163 123.987 575.188 122.682 573.759 121.607C569.638 118.503 564.964 116.271 560.387 114.115C555.849 111.975 551.178 110.357 546.526 108.564C542.202 106.897 537.183 103.794 532.54 103.565L532.337 103.554C530.86 103.472 529.633 103.362 529.867 105.625ZM157.835 76.3507C162.253 74.9844 158.079 71.9094 155.454 72.1254C152.525 72.3667 149.694 73.8871 146.916 74.8042C138.424 77.6077 130.552 80.6737 122.619 85.0253C121.436 85.6751 116.223 88.7549 119.671 90.1188C122.061 91.0636 127.641 87.0096 129.693 86.037C138.709 81.7629 148.396 79.2691 157.835 76.3507Z" fill="#232323"/>
<path fill-rule="evenodd" clip-rule="evenodd" d="M333.944 86.3041C333.392 84.5227 326.562 65.0495 329.235 64.4623C332.067 63.8396 335.852 75.1378 336.673 77.1791C339.707 84.7181 341.503 92.8073 342.911 100.894C343.891 106.525 344.753 112.293 344.409 118.05C344.146 122.474 342.484 123.143 339.745 125.854C339.745 112.417 337.888 99.0226 333.944 86.3041Z" fill="#232323"/>
<path fill-rule="evenodd" clip-rule="evenodd" d="M456.889 63.1265C463.006 56.3951 469.124 49.6636 475.242 42.9323C477.134 46.209 479.027 49.4854 480.919 52.762C481.432 53.6486 482.361 54.754 482.634 55.7297C482.924 56.7712 483.216 56.5203 481.857 56.9423C480.119 57.4813 478.272 57.7997 476.501 58.2225C473.317 58.9822 470.115 60.1909 466.881 60.6811C465.231 60.9311 463.799 61.4923 462.197 61.9048C460.438 62.3578 458.622 62.5731 456.889 63.1265ZM485.953 58.4708C484.177 54.626 481.988 51.0217 479.86 47.3501C477.946 44.0468 476.305 40.8186 473.641 38.0346C473.45 40.4053 470.832 42.4519 469.448 44.228C467.541 46.6753 465.304 48.8372 463.282 51.1899C461.295 53.5006 459.485 55.9501 457.494 58.2592C456.484 59.4302 455.436 60.5687 454.431 61.7434C453.802 62.4789 452.175 63.9287 452.004 64.863C451.485 67.6992 456.801 65.6519 457.897 65.408C461.185 64.678 464.391 63.6809 467.681 62.9695C470.748 62.307 473.802 61.6022 476.855 60.8836C479.877 60.1723 483.111 59.7001 485.953 58.4708Z" fill="#232323"/>
</svg>
