<svg width="500" height="463" viewBox="0 0 500 463" fill="none" xmlns="http://www.w3.org/2000/svg">
<circle cx="266" cy="230" r="230" fill="#F3EAF5"/>
<path fill-rule="evenodd" clip-rule="evenodd" d="M125.537 289.319C128.378 310.625 131.219 331.932 134.06 353.238L136.354 370.444C136.643 372.615 136.37 376.898 137.473 378.842C137.863 379.527 138.887 379.853 139.64 380.257C142.232 381.649 144.825 383.041 147.417 384.432C169.345 396.205 191.273 407.978 213.2 419.751C234.244 431.049 255.288 442.347 276.332 453.645C278.51 454.815 282.032 457.865 284.383 457.061C286.618 456.298 288.902 454.413 290.93 453.225C294.825 450.942 298.719 448.66 302.614 446.378C326.18 432.567 349.745 418.756 373.311 404.946C383.034 399.248 392.756 393.55 402.479 387.852C405.139 386.293 407.8 384.734 410.46 383.175C411.851 382.359 412.032 382.388 412.58 381.004C414.627 375.83 415.575 369.903 417.024 364.534C418.62 358.618 420.217 352.702 421.814 346.786C422.525 344.146 422.191 343.805 421.03 341.257C418.732 336.212 416.435 331.169 414.137 326.126C409.038 314.931 403.938 303.737 398.838 292.542C396.776 288.015 391.808 284.83 388.232 281.5L332.705 229.803C331.294 228.49 329.884 227.177 328.474 225.864C328.241 233.756 326.682 242.24 328.969 249.865C332.723 262.377 336.477 274.889 340.23 287.401C342.045 293.449 343.858 299.496 345.673 305.543C346.01 306.667 348.062 311.123 347.514 312.111C347.21 312.659 344.617 313.213 344.056 313.426C341.644 314.344 339.232 315.262 336.82 316.179C330.099 318.736 323.379 321.293 316.659 323.849C310.615 326.149 304.57 328.448 298.526 330.748C296.476 331.528 294.069 332.971 291.904 332.851C289.968 332.743 287.766 331.785 285.892 331.303C282.598 330.454 279.303 329.605 276.009 328.757C269.538 327.09 263.066 325.423 256.595 323.756C249.314 321.881 243.165 316.373 236.939 312.296C226.237 305.288 215.534 298.281 204.833 291.274C202.382 289.669 202.373 288.754 201.397 285.825C199.203 279.242 197.008 272.66 194.814 266.077C193.643 262.563 192.202 259.033 191.317 255.435C189.858 249.496 188.992 243.349 187.836 237.345C187.488 235.533 187.139 233.721 186.79 231.91C182.308 233.728 177.826 235.548 173.344 237.367C172.694 237.63 169.529 238.416 169.247 239.062C169.069 239.47 170.011 241.323 170.145 241.721C173.862 252.728 177.578 263.735 181.295 274.741C182.464 278.204 183.633 281.666 184.802 285.128C182.008 280.738 179.215 276.348 176.421 271.958C174.226 279.341 172.031 286.725 169.836 294.108C164.648 288.121 159.46 282.135 154.271 276.149C152.476 282.135 150.68 288.121 148.884 294.108C143.297 286.725 137.71 279.341 132.122 271.958C131.458 275.811 130.794 279.664 130.129 283.517C129.929 284.68 129.969 288.016 129.195 288.937C128.557 289.695 126.722 289.319 125.537 289.319Z" fill="#774297"/>
<path fill-rule="evenodd" clip-rule="evenodd" d="M479.29 335.375C478.976 345.404 479.193 358.424 473.705 367.243C472.819 368.665 469.818 373.099 469.482 369.199C469.154 365.37 470.096 361.578 469.163 357.705C468.664 355.633 466.984 351.106 464.114 352.978C462.651 353.932 462.266 356.288 461.694 357.775C460.847 359.975 459.899 362.14 459.008 364.323C455.895 371.944 452.669 381.039 445.75 386.083C446.655 379.511 449.124 372.494 447.464 365.851C446.899 363.587 445.186 359.452 442.236 360.779C439.362 362.072 437.499 367.839 436.142 370.407C432.029 378.193 427.822 385.833 423.192 393.329C420.863 397.099 418.347 400.544 415.3 403.769C413.394 405.787 411.018 409.196 408.015 409.496C408.015 403.748 409.907 398.194 411.634 392.78C413.491 386.959 415.185 381.088 417.008 375.256C418.59 370.197 419.888 365.177 420.941 359.989C421.378 357.844 421.722 355.622 423.551 354.237C425.195 352.991 427.792 352.399 429.625 351.484C434.438 349.079 439.388 346.484 443.859 343.495C445.695 342.268 447.276 340.683 449.198 339.582C451.388 338.328 453.433 337.273 455.459 335.744C464.203 329.149 472.085 321.036 477.396 311.379C478.258 315.259 479.401 319.05 479.527 323.05C479.656 327.15 479.419 331.277 479.29 335.375ZM407.329 381.475C405.93 379.113 403.8 380.081 401.923 381.219C399.01 382.986 396.089 384.74 393.161 386.484C387.203 390.034 381.355 393.77 375.534 397.539C363.684 405.209 351.421 411.487 338.928 417.98C326.853 424.254 315.256 431.721 303.943 439.268C301.224 441.082 298.524 442.938 295.914 444.906C293.596 446.652 291.743 449.104 289.304 450.658C286.763 452.277 285.017 450.964 282.587 449.77C279.548 448.277 276.381 447.026 273.275 445.68C260.74 440.245 248.17 434.604 235.976 428.436C223.856 422.306 212.373 415.242 200.76 408.227C195.229 404.886 189.793 401.333 184.337 397.869C178.532 394.183 172.521 391.422 166.431 388.289C163.737 386.902 161.35 385.019 158.582 383.758C155.673 382.433 152.6 381.483 149.994 379.571C148.827 378.714 147.841 377.69 146.506 377.083C145.41 376.586 144.166 376.502 143.084 375.974C140.882 374.898 140.252 372.716 139.826 370.447C137.083 355.878 135.626 340.906 134.036 326.175C133.143 317.891 132.146 309.639 130.912 301.399C130.355 297.684 131.475 294.806 132.062 291.192C132.748 286.971 133.02 282.661 133.479 278.411C135.649 282.431 137.525 286.649 140.285 290.316C142.32 293.019 145.796 296.852 149.543 296.762C155.366 296.621 155.1 286.633 155.334 282.668C157.987 285.036 158.791 288.893 160.993 291.643C163.003 294.154 165.739 297.269 168.826 298.393C175.326 300.761 174.701 288.695 174.343 285.274C174.164 283.557 173.194 280.842 175.494 281.624C177.611 282.345 179.672 285.333 181.451 286.703C184.528 289.072 187.902 291.041 191.058 293.303C194.974 296.109 199.199 298.138 203.191 300.751C205.688 302.386 208.412 302.753 211.134 303.955C215.122 305.717 218.645 308.342 222.441 310.454C229.958 314.635 238.297 318.383 246.519 320.904C249.18 321.719 252.725 324.018 254.743 321.655C255.985 320.202 256.802 317.982 257.857 316.352C259.191 314.289 260.608 312.281 262.08 310.313C267.31 303.321 273.115 296.718 279.562 290.82C287.062 283.959 295.264 277.785 304.036 272.642C307.805 270.433 323.543 260.53 327.002 267.5C324.16 267.322 321.696 268.362 319.265 269.664C318.671 269.982 315.612 272.167 316.328 270.241C315.439 270.408 314.659 271.567 313.986 272.082C312.823 272.973 311.059 274.001 309.712 274.739C308.381 275.467 306.736 275.646 305.522 276.529C305.079 276.852 304.811 277.375 304.388 277.724L303.176 277.734C302.995 278.405 302.813 279.075 302.632 279.746C301.947 277.551 300.97 280.406 299.826 281.333C299.138 281.891 298.05 282.465 297.24 282.825C296.634 283.093 296.541 282.468 295.953 282.944C295.431 283.366 295.098 284.295 294.537 284.825C293.848 285.472 292.966 285.976 292.198 286.529C290.726 287.588 289.17 288.421 287.679 289.425C285.674 290.777 284.622 293.101 282.675 294.515C281.753 295.184 280.32 295.262 279.821 295.691C278.569 296.767 278.982 298.398 276.647 298.47C276.86 298.81 276.987 299.179 277.031 299.577C276.475 299.481 275.98 299.25 275.548 298.885C275.645 301.213 273.355 302.045 271.982 303.479C271.191 304.305 270.205 305.467 269.647 306.461C269.554 306.627 269.377 307.955 269.339 307.972C269.127 308.074 267.837 306.941 267.959 307.036C267.599 309.187 265.517 311.221 264.605 313.213C264.125 314.262 263.637 315.949 262.691 316.687C262.433 316.888 261.641 316.678 260.987 317.376C260.507 317.887 259.953 318.832 259.758 319.511C259.628 319.964 259.784 321.136 259.598 321.408C259.255 321.904 258.722 321.405 258.186 321.773C257.195 322.452 257.17 323.512 255.719 323.652C256.719 326.081 262.755 326.83 264.949 327.521C271.154 329.474 277.664 331.424 283.464 334.415C284.964 335.188 286.383 335.826 286.649 337.608C287.02 340.087 285.756 343.385 285.515 345.889C284.862 352.653 284.728 359.617 284.865 366.409C284.994 372.843 285.202 379.338 285.502 385.764C285.78 391.722 286.981 397.563 287.63 403.479C287.808 405.103 287.689 412.426 290.481 412.057C292.812 411.749 291.34 406.747 291.296 405.314C291.199 402.14 291.867 398.901 291.839 395.699C291.826 394.16 292.498 392.834 292.563 391.361C292.627 389.906 291.904 388.756 292.121 387.248C292.329 385.8 296.608 377.474 292.498 378.45C292.739 377.259 292.95 376.059 293.268 374.886C293.707 375.282 294.061 375.743 294.328 376.27C294.694 373.713 294.572 371.16 294.799 368.601C294.901 367.442 295.371 366.172 295.21 365.004C295.241 364.519 295.179 364.044 295.026 363.578C294.773 363.311 294.46 363.17 294.088 363.156C293.893 362.516 293.842 362.34 294.19 361.712C294.339 361.287 294.634 361.021 295.077 360.916C295.92 360.816 296.016 360.331 295.365 359.463C295.705 357.748 295.748 356.666 295.504 354.955C295.298 353.518 296.055 350.735 295.283 349.455C294.382 347.959 293.935 349.41 293.767 347.336C293.731 346.897 293.702 345.983 293.879 345.545C294.072 345.069 294.654 345.264 294.728 345.094C295.232 343.942 295.266 341.673 293.48 341.87C293.55 341.047 293.62 340.224 293.69 339.401C294.98 340.886 294.529 339.629 295.261 338.803C296.246 337.691 297.21 337.499 298.618 337.059C302.372 335.889 305.989 334.127 309.658 332.697C317.426 329.67 325.338 326.967 332.878 323.39C348.738 315.864 364.282 307.697 380.239 300.37C379.099 298.255 379.808 298.152 380.641 296.166C381.753 296.938 381.519 296.399 382.311 296.352C382.239 295.689 382.445 295.489 382.929 295.752C383.313 295.87 383.708 295.912 384.113 295.877C385.1 296.047 385.907 296.59 386.805 296.797C387.1 297.014 387.424 297.177 387.777 297.286C388.094 297.214 388.365 297.057 388.589 296.815C390.042 297.085 390.532 298.179 390.596 299.765C390.607 300.041 389.762 300.323 390.004 300.694C390.426 301.341 391.563 301.187 392.213 301.27C392.07 301.942 391.928 302.615 391.786 303.287C394.638 301.971 393.894 306.091 394.759 307.444C395.001 307.822 395.538 307.521 395.817 307.958C396.181 308.529 396.072 309.338 396.382 309.907C397.084 311.193 397.787 311.037 398.487 312.51C402.144 320.202 407.009 327.368 410.52 335.225C412.191 338.965 413.698 342.769 415.443 346.475C417.049 349.887 417.967 352.787 416.822 356.513C414.168 365.155 411.329 373.955 407.85 382.303C407.677 382.027 407.503 381.751 407.329 381.475ZM222.176 445.985C221.927 446.409 221.678 446.832 221.429 447.257C220.876 444.075 222.349 445.551 222.176 445.985ZM210.468 440.027C209.67 439.788 210.015 438.485 210.04 437.928C210.545 438.557 211.04 439.198 211.46 439.889C211.129 439.935 210.798 439.981 210.468 440.027ZM178.379 427.796C179.217 427.326 179.82 426.988 180.77 426.456C179.805 428.338 179.805 428.338 178.379 427.796ZM127.897 262.012C126.617 265.155 130.521 284.561 126.886 285.194C126.365 283.491 126.299 278.801 124.141 278.241C121.464 277.546 121.728 282.374 121.362 283.867C115.865 280.043 113.423 272.657 110.797 266.803C107.449 259.343 104.815 251.582 102.3 243.809C100.149 237.162 98.3702 230.398 96.1965 223.762C94.8311 219.595 93.359 215.417 92.4407 211.121C92.2414 210.188 91.4566 207.821 92.1234 206.934C93.0926 205.644 96.5815 207.121 97.7057 207.46C104.999 209.655 112.564 210.6 120.057 211.875C128.383 213.29 136.689 214.754 145.065 215.852C147.158 216.126 149.252 216.386 151.347 216.639C152.706 216.803 154.763 216.639 156.053 217.248C158.666 218.481 159.222 223.198 160.192 225.645C163.812 234.775 168.073 243.617 171.884 252.665C175.318 260.815 177.921 269.486 182.856 276.908C179.175 275.276 174.51 266.648 170.397 271.621C168.629 273.759 169.075 276.577 169.216 279.136C169.421 282.835 169.485 286.562 169.485 290.268C165.46 289.222 162.755 284.653 160.642 281.416C157.755 276.995 155.937 272.829 154.659 267.761C154.105 265.567 152.637 265.512 151.333 264.199C150.495 263.355 150.074 262.217 148.871 263.445C147.361 264.988 148.366 269.262 148.627 271.084C149.246 275.42 151.279 282.093 149.303 286.167C146.637 291.666 139.492 277.831 138.655 275.832C138.23 274.815 130.628 255.309 127.897 262.012ZM122.906 167.782C123.356 167.851 123.805 167.919 124.256 167.988C123.893 168.309 123.138 169.432 122.521 169.135C122.65 168.684 122.778 168.233 122.906 167.782ZM146.749 162.665C146.609 162.82 146.467 162.975 146.325 163.13C145.68 162.323 145.909 161.146 145.909 160.213C146.762 160.729 146.97 161.759 146.749 162.665ZM148.676 171.618V174.256C146.889 173.481 146.853 173.081 148.676 171.618ZM150.847 174.972C149.595 174.628 149.445 174.351 149.621 172.427C150.14 173.505 150.482 174.215 150.847 174.972ZM158.056 194.505C157.531 195.856 154.463 192.638 154.575 191.674C154.682 190.755 155.153 190.481 155.804 191.072C156.019 191.268 155.699 191.975 155.837 192.22C156.332 193.109 157.33 193.835 158.056 194.505ZM158.09 202.642C157.321 204.561 155.951 201.539 157.959 201.456C158.091 201.842 158.135 202.237 158.09 202.642ZM156.599 199.616C156.301 199.219 156.012 198.817 155.731 198.407C156.766 198.616 157.587 200.123 158.678 199.118C158.549 200.651 157.459 200.694 156.599 199.616ZM89.7044 174.686C88.0408 172.871 98.8886 171.596 100.197 171.284C109.694 169.02 118.66 165.743 127.54 161.722C131.776 159.804 135.99 157.862 140.127 155.736C141.913 154.818 144.361 154.04 145.853 152.662C146.918 151.678 146.876 150.934 148.26 150.348C149.435 149.852 149.493 150.321 150.032 149.423C150.355 148.884 150.721 146.91 150.531 146.326C150.016 144.731 149.254 146.024 148.184 144.925C147.414 144.133 147.601 141.881 147.811 140.949C148.084 141.393 148.24 141.875 148.282 142.395C149.443 141.823 148.975 139.857 150.245 139.535C151.583 139.196 151.444 140.239 151.793 141.304C152.804 139.82 151.994 138.553 151.447 137.104C154.229 136.583 157.218 136.078 159.975 137.004C161.969 137.672 163.676 139.317 165.781 139.635C167.843 139.945 168.239 138.968 169.759 137.976C170.993 137.171 172.052 138.119 172.687 137.511C172.296 139.564 168.93 139.283 169.344 141.849C169.531 143.004 170.946 144.041 171.59 144.94C172.399 146.068 173.044 147.314 173.594 148.585C175.737 153.529 176.653 159.266 177.552 164.552C179.77 177.601 180.051 190.907 182.138 203.998C183.132 210.234 184.129 216.473 184.646 222.769C184.775 224.344 185.736 227.914 184.95 229.429C184.285 230.708 182.805 230.711 181.506 231.021C178.964 231.625 176.577 232.445 174.139 233.355C171.954 234.169 171.318 234.669 169.915 232.613C168.558 230.623 167.887 228.251 166.916 226.07C165.679 223.291 164.185 220.609 162.751 217.927C165.569 217.927 167.19 216.406 167.115 213.543C167.034 210.371 164.426 209.619 163.351 207.013C162.305 208.371 162.217 208.409 161.471 207.12C160.619 205.645 160.044 202.947 159.522 201.275C159.895 201.673 160.268 202.071 160.641 202.468C161.582 201.174 160.108 199.134 159.616 197.915C158.855 196.033 158.721 193.998 158 192.122C157.607 191.097 156.696 190.291 156.472 189.222C156.323 188.507 156.921 187.826 156.779 187.1C156.532 185.836 155.102 184.479 154.657 183.194C153.973 181.216 153.23 179.474 152.381 177.547C151.232 174.939 151.499 172.202 151.289 169.426C151.071 166.548 150.15 163.794 149.824 160.929C149.599 158.949 150.303 156.456 148.806 154.87C148.63 157.506 149.386 157.465 146.909 157.94C144.09 158.479 142.045 160.58 139.379 161.206C138.829 161.336 138.429 158.935 138.643 162.21C137.365 161.266 134.635 162.438 135.654 162.998C134.882 163.824 133.362 163.252 133.108 164.489C130.486 161.94 126.28 170.618 123.157 166.091C122.642 169.159 120.42 170.973 117.438 171.379C115.938 171.582 115.014 172.082 113.683 172.532C113.413 172.622 113.314 173.011 112.994 173.116C112.506 173.275 111.789 172.794 111.437 172.887C110.72 173.078 109.923 174.021 108.923 174.208C107.776 174.423 106.525 174.324 105.377 174.191C103.941 174.025 103.309 173.855 101.904 174.328C100.64 174.753 99.2855 175.945 98.1122 174.647C96.269 177.836 91.8744 177.057 89.7044 174.686ZM174.916 136.204C173.521 136.037 174.49 134.838 175.136 134.477C176.891 133.499 176.422 136.385 174.916 136.204ZM97.6806 147.648C105.867 135.837 119.871 127.722 132.192 120.894C138.922 117.164 145.791 113.549 152.857 110.497C156.371 108.98 159.925 107.522 163.512 106.189C165.428 105.477 167.367 104.83 169.307 104.186C169.843 104.008 170.819 103.462 171.381 103.516C171.284 103.506 172.776 103.912 172.483 104.039C173.444 103.621 173.901 102.53 175.032 102.093C176.302 101.602 177.92 101.399 179.281 101.355C180.485 101.316 181.527 101.813 182.674 101.852C183.428 101.877 184.068 101.519 184.806 101.466C185.184 101.44 185.15 102.005 185.378 102.038C185.477 102.052 186.482 101.675 186.492 101.681C186.858 101.917 187.183 102.835 187.514 103.193C188.463 104.222 189.857 104.938 191.123 105.48C192.664 106.138 196.423 106.8 194.681 109.237C195.918 109.059 196.494 110.177 194.945 110.46C194.105 110.614 193.747 109.845 193.124 109.321C191.684 108.112 188.189 106.39 186.115 106.468C184.949 106.512 184.047 107.397 182.971 107.719C181.912 108.035 181.388 107.544 180.459 107.622C179.373 107.713 178.674 108.631 177.639 108.795C176.67 108.948 176.13 108.287 175.263 108.333C174.234 108.388 173.236 109.282 172.253 109.583C170.69 110.06 169.542 110.386 168.015 111.178C165.057 112.713 161.753 113.297 158.704 114.618C156.266 115.675 153.502 116.231 151.247 117.4C148.739 118.698 146.219 119.992 143.763 121.403C141.988 122.422 138.381 122.773 136.425 122.514C136.397 126.116 134.623 123.591 132.836 125.169C133.259 125.542 133.739 125.816 134.275 125.991C132.338 126.765 130.548 127.727 128.672 128.616C126.733 129.536 124.665 129.738 123.391 131.477C122.217 133.08 122.615 132.253 120.864 132.884C120.06 133.174 119.362 134.057 118.783 134.65C117.788 135.67 117.568 137.215 117 135.119C116.834 135.374 116.181 137.002 116.054 137.043C115.343 136.288 115.24 137.183 114.842 137.503C115.052 138.2 114.752 138.656 113.944 138.872C113.535 139.176 113.121 139.474 112.703 139.766C111.185 140.819 109.252 141.722 108.183 143.291C107.395 142.826 107.102 142.023 107.583 141.204C106.076 142.592 104.278 144.019 103.87 146.157C103.683 145.976 103.465 145.845 103.217 145.765C102.605 146.178 103.402 147.409 103.79 147.686C105.481 147.029 103.367 147.267 104.504 147.373C104.828 147.403 105.16 147.646 105.518 147.65C106.566 147.663 107.551 147.613 108.59 147.453C110.882 147.1 113.134 146.442 115.352 145.783C117.768 145.064 120.185 144.347 122.548 143.466C124.493 142.74 126.407 141.932 128.319 141.126C129.083 140.804 129.846 140.477 130.611 140.158C132.064 139.551 132.83 138.553 132.628 140.262C133.785 140.07 134.787 138.434 135.676 137.767C136.926 136.829 138.331 136.129 139.812 135.65C140.412 135.456 140.853 135.21 141.473 135.208C141.777 135.207 141.959 136.064 142.151 136.018C143.48 135.696 142.874 134.959 143.471 133.899C144.778 131.58 148.298 130.298 150.46 128.981C151.832 128.144 152.806 127.02 154.072 126.094C154.665 125.661 155.095 125.469 155.716 125.286C156.192 125.145 156.775 126.237 157.083 125.14C155.977 124.688 155.065 124.131 154.002 123.801C153.249 123.567 154.152 122.766 152.96 123.243C152.481 123.434 152.316 124.361 152.14 124.749C150.808 123.56 147.063 124.792 145.483 125.29C145.374 125.324 144.886 125.067 144.656 125.082C143.744 125.144 143.108 126.371 142.508 126.9C140.911 128.307 139.18 128.895 137.214 129.697C137.737 126.839 141.582 125.668 143.826 124.573C147.107 122.972 150.161 120.929 153.753 120.068C156.145 119.494 159.315 119.033 160.348 121.814C160.966 123.481 161.044 127.623 158.952 128.392C158.731 127.614 159.439 126.949 159.652 126.274C157.569 127.069 157.226 129.57 155.644 130.876C154.755 131.609 154.438 131.845 154.008 132.553C153.581 133.257 153.376 133.914 152.376 134.663C150.741 131.19 151.018 135.947 150.188 136.544C150.522 136.304 148.837 137.005 149.038 136.931C148.961 136.959 148.227 135.77 147.751 135.796C146.885 135.841 147.051 136.795 146.634 137.275C145.219 138.899 143.392 139.965 141.115 139.709C141.062 140.865 141.418 142.246 139.84 142.352L139.633 139.789C138.774 140.658 137.643 141.484 136.944 142.49C136.148 143.635 136.233 144.34 134.913 145.104C133.534 145.902 130.599 147.474 128.958 147.61C129.364 147.034 129.292 146.513 128.744 146.05C127.918 146.901 126.699 146.985 125.82 147.754C128.871 149.028 123.477 148.962 122.793 149.107C122.335 149.204 121.935 149.621 121.471 149.715C120.855 149.84 120.775 149.192 120.245 149.398C119.469 149.698 119.784 150.546 118.972 150.973C118.389 151.279 117.4 151.275 116.742 151.566C115.174 152.26 111.835 153.798 110.775 151.933C110.238 155.133 104.754 153.185 102.724 152.97C99.944 152.675 95.1016 151.37 97.6806 147.648ZM109.357 114.904C109.751 114.568 110.145 114.593 110.539 114.978C109.99 112.082 114.232 110.676 116.082 109.444C118.536 107.811 121.425 104.643 124.637 104.894C124.089 105.299 123.543 105.705 122.996 106.111C123.777 106.212 124.557 106.314 125.337 106.415C124.897 107.061 124.457 107.707 124.016 108.353C123.295 104.381 119.534 109.396 118.446 110.127C117.35 110.863 116.257 111.411 115.283 112.308C114.318 113.197 113.447 114.798 111.851 113.998C111.706 116.267 109.882 115.652 108.621 116.908C108.568 116.12 109.019 115.562 109.357 114.904ZM126.02 103.578C129.902 102.124 133.282 99.4358 136.94 97.5154C140.434 95.6806 143.999 94.0332 147.551 92.3217C149.353 91.4531 152.654 89.207 154.714 90.3516C157.494 91.8972 153.667 92.3959 152.673 92.9311C152.306 90.5509 151.018 92.7072 151.787 94.0314C149.666 93.1155 145.041 96.6989 143.017 97.6872C142.559 97.9111 142.765 98.0404 142.244 98.3038C142.116 98.3685 140.788 98.6708 140.408 98.7983C138.503 99.4358 137.248 98.9294 136.427 101.229C136.255 100.688 136.083 100.146 135.912 99.604C134.719 102.282 131.094 103.454 128.777 105.037C128.179 105.445 126.473 107.029 125.715 106.701C124.66 106.245 125.084 103.929 126.02 103.578ZM196.052 111.652C197.691 111.76 196.111 112.524 196.561 113.03C196.51 112.973 197.548 113.858 197.412 113.615C197.595 113.942 198.035 113.93 198.26 114.594C199.036 116.879 195.65 119.24 194.509 120.537C192.289 123.059 191.006 126.253 188.693 128.694C187.648 129.797 186.609 130.558 185.161 130.969C184.148 131.257 183.076 130.949 182.144 131.924C181.394 132.708 181.564 133.154 180.735 133.572C179.274 134.307 178.631 133.662 177.21 135.252C175.987 131.927 179.5 131.933 181.334 130.074C183.865 127.509 186.639 124.921 189.012 122.177C191.121 119.739 191.965 117.601 192.966 114.639C193.282 113.705 193.625 111.703 194.495 111.117C195.85 110.205 195.037 111.584 196.052 111.652ZM204.112 198.022C208.411 193.214 213.744 188.897 219.524 186C221.59 184.965 224.531 183.606 226.672 185.2C228.772 186.763 228.32 189.88 227.474 192C226.663 191.682 227.428 188.702 227.007 187.965C226.089 186.358 224.108 187.212 222.76 187.75C221.18 188.381 219.771 189.078 218.521 190.223C218.013 190.687 217.041 191.103 216.716 191.422C216.228 191.219 215.94 191.367 215.854 191.865C215.954 192.171 215.942 192.471 215.817 192.767C215.746 192.861 215.111 192.475 215.02 192.553C214.609 192.905 214.223 193.32 213.818 193.647C213.004 194.305 212.312 194.617 211.563 195.534C210.117 197.306 208.204 198.345 206.751 200.034C206.423 200.416 206.03 201.394 205.956 201.48C205.221 202.337 204.132 203.015 203.304 203.923C201.871 205.491 200.342 206.543 198.689 207.888C197.977 208.466 197.147 209.089 196.673 209.894C196.458 210.261 196.336 212.272 196.329 212.28C194.708 214.057 195.023 210.486 195.145 210.038C196.462 205.22 200.912 201.602 204.112 198.022ZM195.264 230.604C195.465 231.361 195.631 231.986 195.836 232.754C194.551 231.7 194.551 231.7 195.264 230.604ZM193.875 233.082C193.403 233.558 192.928 234.031 192.45 234.501C191.398 233.389 194.068 232.892 193.875 233.082ZM193.208 213.949C192.705 215.983 190.864 218.449 189.599 220.054C189.738 219.877 188.519 220.233 188.38 220.314C187.929 220.575 189.009 222.267 187.447 221.511C186.892 221.824 187.984 223.102 187.231 223.674C185.054 218.714 190.997 214.417 193.298 210.735C194.424 211.769 193.491 212.808 193.208 213.949ZM179.07 240.764C180.657 241.172 181.483 240.915 182.554 239.357C183.198 238.42 183.434 236.762 184.907 238.163L185.167 236.362C187.27 237.224 187.093 240.342 188.012 242.07C188.459 240.115 189.518 234.655 192.761 235.531C196.401 236.514 190.342 242.775 189.78 244.308C188.542 242.388 189.029 244.174 188.085 244.445C187.275 244.678 186.009 244.082 185.025 244.135C182.031 244.298 179.401 245.645 176.665 246.786C175.973 244.919 175.281 243.051 174.588 241.184C176.198 241.308 179.528 237.022 180.001 240.137C178.807 239.93 178.47 239.982 177.888 241.069C178.26 240.881 178.654 240.779 179.07 240.764ZM185.792 265.135C185.787 265.12 188.889 265.312 189.165 265.21C191.288 264.435 190.503 262.027 190.937 260.326C191.813 261.13 191.349 262.599 191.619 263.64C191.935 264.863 192.852 265.906 192.937 267.215C193.131 270.171 190.705 269.515 188.866 270.472C187.294 271.289 187.12 272.318 185.793 270.114C185.434 269.518 184.661 267.965 184.74 267.202C184.818 266.447 186.015 265.819 185.792 265.135ZM188.291 277.929L187.434 276.968C189.99 277.751 188.482 276.574 189.07 274.966C191.032 276.272 192.632 277.615 194.184 274.999L196.866 285.816C195.065 286.24 192.741 283.457 191.505 282.501C190.792 281.949 186.832 279.821 189.21 279.2C188.903 278.777 188.597 278.353 188.291 277.929ZM205.798 243.961C204.309 245.377 202.809 246.17 201.188 247.283C199.767 248.259 200.256 249.381 199.024 250.47C198.205 251.195 196.287 251.932 195.276 252.485C193.474 253.469 191.861 253.656 190.008 252.555C190.512 256.614 187.732 256.932 184.272 257.736C182.621 258.12 181.644 258.706 180.455 257.194C179.64 256.16 179.321 254.287 180.334 253.34C181.944 251.836 186.233 252.355 188.298 251.409C189.865 250.692 191.462 246.651 193.395 248.122C192.397 246.532 193.559 246.104 194.427 244.971C195.377 243.729 195.961 242.277 196.943 241.045C198.811 238.703 201.679 236.347 204.331 234.935C206.665 233.693 207.891 234.572 208.24 237.181C208.416 238.493 208.41 240.447 207.675 241.61C207.441 241.982 206.668 241.986 206.434 242.334C206.027 242.943 206.401 243.388 205.798 243.961ZM233.187 212.477C235.049 213.919 234.868 216.948 235.161 219.011C235.575 221.918 235.275 224.732 235.231 227.693C235.184 230.796 233.662 232.817 232.945 235.725C232.149 238.96 231.121 240.674 229.335 243.388C231.272 243.693 228.389 249.478 227.914 250.227C227.398 251.04 223.237 254.786 225.021 254.786C224.036 256.084 222.965 257.416 221.984 258.678C221.598 259.175 220.921 259.37 220.617 259.721C219.997 260.434 219.96 261.07 219.516 261.902C218.843 263.164 218.621 262.827 217.736 263.743C217.125 264.376 216.723 265.211 216.123 265.817C214.188 267.771 213.942 266.171 212.86 264.666C212.694 265.069 212.4 265.322 211.976 265.424C211.638 263.722 213.97 262.002 214.95 260.967C216.556 259.272 218.024 257.404 219.444 255.55C222.485 251.578 225.218 247.357 227.374 242.836C229.668 238.025 231.501 232.818 232.453 227.57C233.178 223.569 233.868 216.706 228.522 215.688C224.634 214.949 220.348 217.311 217.143 219.223C215.189 220.388 213.225 221.547 211.365 222.857C209.345 224.278 207.599 226.29 205.407 227.43C206.606 226.806 202.65 228.684 203.255 228.156C202.972 228.402 203.217 229.156 203.029 229.496C202.785 229.938 201.936 230.375 201.555 230.661C200.55 231.417 198.943 232.19 198.486 233.437C192.107 228.887 204.792 220.807 208.044 218.75C214.494 214.669 225.718 206.695 233.187 212.477ZM250.394 168.219C250.333 164.942 253.002 160.468 254.804 157.796C255.686 156.488 257.095 156.54 257.611 154.997C257.909 154.109 257.519 153.177 257.607 152.286C257.727 151.079 258.25 150.112 258.853 149.075C264.309 139.702 270.937 131.406 277.997 123.229C281.478 119.198 284.778 115.012 288.532 111.225C290.1 109.643 294.315 103.957 296.727 104.526C298.003 104.827 298.746 106.776 299.323 107.77C300.276 109.414 301.324 110.955 302.482 112.467C305.54 116.459 309.066 119.964 313.231 122.793C315.831 124.562 318.459 126.28 321.002 128.133C323.095 129.658 326.26 131.401 327.755 133.542C329.25 135.683 327.055 137.496 325.854 139.274C323.989 142.039 322.273 144.904 320.4 147.666C319.656 147.131 319.848 146.044 319.338 145.359C318.886 144.751 318.246 144.504 317.621 144.129C316.423 143.411 315.247 142.533 314.165 143.736C312.272 145.841 314.875 150.816 317.682 150.27C318.012 152.347 312.408 155.768 311.004 156.912C306.694 160.419 302.248 163.467 296.554 163.785C294.25 163.913 291.853 163.738 289.663 162.967C288.615 162.598 287.455 162.091 286.651 161.285C285.688 160.322 285.443 158.887 284.509 157.933C283.699 157.105 282.587 156.978 281.778 156.147C280.967 155.315 280.566 154.002 280.238 152.925C279.595 150.821 279.473 148.602 278.856 146.493C278.484 145.224 278.179 143.528 276.966 144.747C275.206 146.518 276.09 152.086 276.541 154.207C277.185 157.234 278.697 159.674 280.28 162.278C281.997 165.103 282.631 167.723 282.939 170.992C283.515 177.11 285.271 182.982 288.003 188.487C289.153 190.805 290.53 192.984 291.772 195.249C292.352 196.305 293.651 199.91 295.229 199.891C297.749 199.86 294.159 192.511 293.661 191.277C290.9 184.443 288.263 177.261 287.672 169.862C291.629 170.881 295.943 171.849 300.041 171.203C297.396 177.119 300.159 183.009 299.821 189.098C299.652 192.151 299.53 194.969 299.593 198.013C299.649 200.683 298.443 203.352 297.401 205.766C295.331 210.561 292.725 216.475 288.88 220.148C285.666 223.218 281.367 223.458 277.167 222.751C267.614 221.142 261.338 213.799 257.329 205.458C254.753 200.101 252.784 194.381 251.562 188.563C250.146 181.829 250.52 175.049 250.394 168.219ZM262.8 122.836C253.885 116.386 266.84 109.061 273.434 110.058C274.981 110.291 277.827 110.931 277.682 112.949C277.563 114.599 274.811 116.438 273.755 117.456C270.742 120.362 267.676 126.362 262.8 122.836ZM327.653 266.159C327.347 265.884 324.852 266.557 325.84 265.081C326.661 263.854 328.938 265.392 329.766 265.707C329.084 266.178 328.491 266.908 327.653 266.159ZM290.532 344.172C289.766 344.266 288.965 342.2 291.727 343.744C291.329 343.886 290.93 344.029 290.532 344.172ZM290.453 377.851C290.548 378.778 290.831 379.388 290.173 380.062C289.617 379.376 289.545 378.409 290.453 377.851ZM291.574 391.767C291.493 392.271 291.411 392.775 291.331 393.279C290.693 392.956 290.056 392.634 289.418 392.31C290.136 392.129 290.856 391.949 291.574 391.767ZM292.355 380.033C293.305 380.388 292.863 379.252 293.553 379.092C293.8 380.275 293.496 381.289 292.816 382.265C292.752 382.034 292.403 380.05 292.355 380.033ZM316.65 296.06C315.316 295.89 315.114 297.299 314.12 297.845C313.478 298.199 311.524 297.933 311.16 298.609C311.641 298.748 312.123 298.888 312.604 299.027C311.502 299.62 310.4 300.215 309.298 300.809C311.949 300.809 314.711 299.543 317.343 299.914C318.456 300.072 319.272 300.448 319.97 301.353C320.394 301.902 320.766 302.787 320.835 303.459C320.908 304.187 320.341 304.69 320.441 305.037C321.628 305.07 321.488 307.016 321.221 307.809C320.644 309.529 318.349 312.222 316.293 311.131C317.153 312.352 316.934 313.049 315.662 313.757C315.777 313.354 315.862 312.648 315.212 312.718C315.045 313.394 315.109 314.467 314.557 314.977C313.938 315.548 313.387 314.881 312.795 315.252C312.094 315.692 312.305 316.384 311.753 316.862C311.024 317.493 310.92 317.044 310.049 317.167C308.729 317.354 309.571 316.534 308.514 317.603C308.148 317.971 308.21 318.931 307.617 319.471C306.478 320.507 303.44 321.587 302.35 320.258C299.727 324.415 291.866 325.412 288.207 322.131C282.372 316.898 293.253 306.256 296.845 302.884C300.451 299.499 304.456 296.575 308.508 293.753C310.81 292.15 313.173 290.695 315.585 289.266C317.074 288.385 318.942 286.775 320.771 286.929C322.412 287.068 323.813 288.341 325.54 288.593C326.789 288.775 329.215 289.075 327.639 290.77C326.902 291.561 324.009 292.841 323.023 293.034C322.444 293.147 321.834 292.93 321.261 293.047C320.29 293.247 319.623 294.066 318.567 293.962C318.901 295.53 318.291 296.268 316.65 296.06ZM333.92 237.855C333.92 239.081 331.681 238.775 331.214 238.359C330.444 237.673 330.417 235.624 330.131 234.691C331.433 235.019 333.918 236.217 333.92 237.855ZM315.884 197.388C320.587 193.523 325.532 189.979 330.759 186.858C332.631 185.74 335.274 183.486 337.599 183.767C338.574 183.886 340.59 185.006 339.856 186.241C339.719 186.472 338.633 186.564 338.298 186.732C337.918 186.922 337.62 187.445 337.267 187.704C334.825 189.495 331.89 190.596 329.44 192.431C327.426 193.938 325.548 195.624 323.381 196.917C321.301 198.156 319.128 198.941 317.154 200.314C317.193 200.287 314.586 201.224 315.097 201.395C312.808 200.629 315.226 197.93 315.884 197.388ZM347.239 195.949C350.033 194.835 352.766 193.484 355.691 192.736C357.151 192.362 358.649 192.081 360.16 192.25C360.417 191.8 360.759 191.701 361.186 191.952C361.52 192.464 361.959 192.857 362.505 193.132C363.338 193.773 366.406 194.61 365.793 196.025C365.388 196.96 362.312 197.038 361.468 197.248C358.923 197.882 356.55 199.308 353.928 199.658C353.682 199.691 352.879 199.393 352.87 199.395C351.847 199.618 350.996 200.68 350.117 201.188C348.225 202.283 345.507 202.467 344.149 204.357C348.548 207.339 352.364 204.382 356.231 202.13C358.548 200.782 361.035 199.809 363.566 198.945C364.889 198.493 366.224 198.024 367.565 197.628C368.12 197.425 368.691 197.28 369.276 197.191C369.821 197.082 370.211 197.281 370.446 197.786C372.067 197.732 372.206 196.715 373.182 198.612C374.557 201.287 372.452 201.151 370.475 201.479C367.732 201.934 364.942 202.959 362.239 203.639C361.616 203.795 356.15 205.063 356.143 205.108C355.895 206.833 371.583 205.235 372.93 204.977C375.307 204.519 377.856 203.221 380.316 203.534C382.205 203.774 386.509 206.546 383.495 208.387C382.902 205.547 380.866 207.892 379.802 208.851C378.386 210.127 376.357 210.004 374.414 210.504C371.757 211.186 364.956 213.747 363.069 210.482C363.666 213.344 352.825 211.89 351.334 211.795C349.882 211.702 348.006 212.011 346.602 211.597C345.686 211.327 345.176 210.731 344.314 210.597C344.103 210.825 343.85 210.98 343.555 211.062C343.118 210.841 342.724 210.559 342.372 210.219C339.468 208.884 334.976 208.147 336.59 203.896C338.111 199.887 343.549 197.42 347.239 195.949ZM374.452 198.426C374.525 198.177 374.597 197.927 374.669 197.677C374.678 198.442 376.504 198.769 376.293 199.761C375.826 201.958 373.719 198.657 373.538 198.298C373.843 198.341 374.147 198.383 374.452 198.426ZM385.6 202.076C385.812 202.975 388.24 204.891 387.638 205.333C386.681 204.031 384.035 204.622 385.6 202.076ZM344.644 284.172C345.533 282.409 348.22 285.411 347.936 282.401C349.397 282.534 348.485 283.645 350.236 283.157C350.892 282.974 351.336 282.246 352.135 282.079C352.349 282.034 353.27 282.107 353.588 282.097C354.641 282.065 358.768 281.948 355.927 280.566C357.517 279.515 357.713 280.049 359.148 281.012C358.78 279.021 360.891 280.151 361.874 280.399C361.173 279.264 362.913 278.056 363.477 277.288C363.275 278.471 363.381 279.794 365.092 279.038C365.518 278.85 365.423 278.015 365.761 277.878C366.38 277.628 366.726 278.083 366.948 278.057C367.167 278.032 367.627 278.155 368.086 277.982C368.683 277.758 368.395 276.957 369.152 276.838C369.644 276.76 370.004 277.485 370.606 277.491C370.915 277.494 371.43 277.18 371.665 277.197C371.706 277.2 372 276.491 372.361 276.474C372.889 276.448 373.104 277.862 373.297 278.137C374.221 279.448 375.45 280.303 376.867 281.002C374.303 283.354 369.129 283.105 365.905 283.897C364.158 284.327 362.668 284.947 361.069 285.745C360.684 285.996 360.352 286.304 360.074 286.668C359.848 286.518 359.621 286.368 359.394 286.218C358.519 286.271 357.69 285.838 356.704 286.004C353.659 286.518 351.275 288.799 348.18 289.308C346.789 289.536 345.646 289.855 344.741 288.65C343.946 287.593 344.077 285.296 344.644 284.172ZM340.468 270.12C341.158 270.704 340.328 272.604 341.664 272.398C342.612 272.251 342.423 270.78 343.168 270.468C344.146 270.059 344.736 271.03 345.656 270.94C347.37 270.771 347.272 269.274 345.823 268.617C347.329 268.22 347.812 270 349.145 269.984C350.896 269.963 350.478 267.897 351.968 267.555C352.613 267.406 352.398 268.354 352.816 268.472C353.654 268.707 354.238 268.303 354.979 267.947C355.642 267.629 356.115 267.015 356.84 266.807C357.169 266.712 358.007 266.886 358.249 266.709C358.737 266.354 359.174 264.969 359.654 264.785C359.556 264.822 361.131 265.611 361.356 265.686C361.218 266.271 360.898 266.34 360.395 265.895C360.395 267.215 364.063 267.626 363.311 265.995C365.295 266.816 363.817 267.239 363.619 268.385C363.54 268.846 363.272 268.833 363.351 269.321C363.388 269.545 364.428 269.352 364.415 269.658C364.327 271.628 358.048 272.234 356.859 272.407C354.396 272.767 352.065 273.372 349.691 274.117C347.923 274.672 344.876 276.262 342.996 276.163C340.29 276.021 339.938 272.492 340.468 270.12ZM334.424 250.017C333.764 247.825 335.88 243.299 338.636 243.864C339.314 244.003 339.481 244.565 340.007 244.814C340.74 245.162 341.934 244.979 342.57 245.339C343.997 246.146 343.278 248.204 344.708 248.947C342.451 249.494 335.472 253.501 334.424 250.017ZM337.036 258.532C338.008 258.009 339.584 257.942 340.247 256.937C340.577 257.166 341.201 258.554 341.793 258.342C342.07 258.243 342.356 257.49 342.336 257.491C342.863 257.476 342.968 256.762 343.774 256.842C344.514 256.916 345.343 257.806 346.002 258.138C345.889 255.932 346.454 255.721 348.242 254.541C348.634 254.282 348.961 253.311 349.323 252.919C348.977 255.233 349.849 255.246 351.697 255.593C354.014 256.029 355.457 257.273 356.386 259.511C354.411 259.126 351.865 259.59 351.087 261.712C349.511 258.833 343.785 262.806 341.932 263.619C340.557 264.223 338.957 265.035 337.804 263.628C336.992 262.636 337.458 261.444 337.475 260.563C337.48 260.287 337.765 260.27 337.739 259.859C337.705 259.333 337.021 259.123 337.036 258.532ZM358.113 303.801C357.592 303.999 354.908 304.11 354.891 303.221C354.877 302.435 359.627 303.227 358.113 303.801ZM353.754 300.925C351.724 302.177 349.452 297.766 348.705 296.496C350.835 296.768 351.875 294.987 353.13 293.633C354.323 296.248 356.136 294.866 358.043 293.993C360.291 292.962 362.755 292.955 365.059 292.128C365.778 291.87 366.44 291.486 367.142 291.191C367.707 290.98 368.27 290.763 368.831 290.541C369.229 290.182 369.371 289.739 369.255 289.215C369.067 288.774 369.195 288.496 369.641 288.381C370.172 288.539 370.713 288.631 371.266 288.656C372.154 288.48 373.429 287.642 372.358 286.74C373.506 285.697 374.656 286.734 375.762 287.19C375.499 286.441 375.237 285.693 374.974 284.944C375.523 285.177 377.151 287.451 377.317 287.439C378.369 287.36 378.26 285.948 378.864 285.378C379.213 285.808 379.313 289.017 380.685 287.936C381.272 287.474 380.009 285.9 379.698 285.541C381.267 285.896 382.638 287.769 383.062 289.224C382.317 289.332 381.628 289.182 380.995 288.774C380.59 290.8 384.34 289.979 384.947 291.037C386.136 293.109 378.403 294.548 377.395 294.74C375.379 295.125 373 295.268 371.152 296.161C369.381 297.017 368.962 297.262 366.893 297.422C364.531 297.605 362.227 298.384 359.943 298.989C357.96 299.515 355.512 299.842 353.754 300.925ZM396.916 226.76C398.78 226.089 405.061 222.607 406.66 224.156C406.491 223.992 407.813 226.722 407.799 226.551C407.913 227.971 407.878 228.543 406.13 229.224C404.877 229.711 403.787 228.675 402.66 229.086C401.423 229.538 402.288 230.338 401.651 230.897C400.953 231.509 399.608 231.774 398.739 232.042C396.613 232.699 394.47 233.248 392.353 233.955C388.047 235.395 383.488 236.735 379.063 237.753C375.756 238.514 370.143 240.405 367.096 238.171C366.798 239.441 366.072 239.267 365.062 239.452C364.27 239.597 362.838 239.989 362.134 240.01C360.963 240.044 357.706 239.737 358.154 238.094C358.031 238.546 360.688 236.997 360.228 236.9C361.356 237.138 360.99 236.57 361.915 236.254C363.122 235.841 364.384 235.864 365.617 235.427C368.724 234.325 371.331 232.896 374.611 232.205C382.102 230.629 389.688 229.361 396.916 226.76ZM96.5833 396.528C95.9762 396.544 95.5039 394.819 97.3507 396.05C97.0951 396.21 96.8395 396.368 96.5833 396.528ZM81.9946 394.296C81.1691 394.507 80.8398 394.046 81.008 392.914C82.1592 392.459 82.4879 392.92 81.9946 394.296ZM70.7319 391.986C70.5206 390.976 71.2689 390.749 71.9471 390.296C71.8789 391.633 71.8789 391.633 70.7319 391.986ZM42.3938 383.68C41.2522 383.43 39.7311 382.313 39.4695 384.187C39.2785 383.753 38.304 381.712 38.7224 381.24C38.9409 380.993 39.7682 382.136 39.6802 382.023C40.6793 380.002 42.4016 382.441 43.3642 383.162C43.0409 383.335 42.7171 383.508 42.3938 383.68ZM339.206 160.333C339.599 159.5 340.065 159.235 340.599 159.54C339.759 161.489 336.917 162.545 339.206 160.333ZM358.954 142.036C359.658 143.356 358.599 143.914 357.843 145.012C358.286 143.828 358.592 143.008 358.954 142.036ZM444.786 270.888C447.325 270.888 452.735 269.547 454.266 272.45C455.279 270.478 456.431 274.177 457.31 274.77C457.409 274.837 458.043 274.353 458.337 274.531C458.781 274.8 459.164 275.532 459.419 275.967C460.186 277.279 460.516 278.839 460.941 280.283C456.505 280.283 451.957 279.251 447.526 278.875C444.617 278.629 441.765 278.622 438.852 278.778C438.273 278.81 437.124 278.619 436.629 278.727C436.126 278.838 435.214 279.862 434.66 279.698C435.521 281.315 446.554 285.229 447.395 283.439C446.398 282.835 444.183 282.372 444.185 280.914C444.187 279.28 446.263 279.283 447.363 279.331C449.769 279.436 453.799 280.237 454.786 282.74C455.209 283.812 455.339 286.513 454.874 287.549C454.574 288.218 454.066 289.022 453.262 289.157C452.932 289.213 452.457 288.774 452.406 288.785C450.755 289.135 447.699 290.461 445.899 288.592C444.6 290.272 438.346 288.437 436.431 287.803C433.082 286.694 428.471 285.172 426.437 282.047C423.957 278.238 428.998 275.02 431.892 273.471C435.849 271.356 440.369 270.89 444.786 270.888ZM461.686 279.694C462.465 279.914 463.243 280.134 464.021 280.354C463.813 281.719 460.742 280.639 461.686 279.694ZM485.218 329.307C485.457 323.839 483.876 319.023 482.963 313.734C482.737 312.423 482.968 310.131 481.972 309.052C481.021 308.022 478.897 308.86 478.813 307.037C477.876 308.135 477.97 308.364 476.816 307.102C477.026 307.643 477.057 308.193 476.907 308.754C476.191 308.343 473.594 306.979 473.812 308.844C471.677 308.372 472.295 307.036 471.077 306.017C470.904 305.872 470.209 306.386 469.938 306.167C469.448 305.77 469.206 305.41 468.793 304.899C468.268 305.533 467.553 305.992 466.911 306.493C466.538 305.681 465.812 305.085 464.939 304.887C465.755 306.594 467.773 308.806 465.006 309.777C463.354 310.357 460.649 309.646 458.9 309.782C452.417 310.284 445.316 308.871 439.047 307.327C432.608 305.74 426.096 303.501 420.305 300.227C419.07 299.529 418.293 298.703 417.23 297.838C416.196 296.996 415.445 296.863 414.203 296.325C411.967 295.356 409.922 293.803 408.221 292.072C404.564 288.349 401.166 283.48 402.185 278.029C403.2 272.597 406.934 268.351 410.93 264.774C415.649 260.549 420.978 257.021 426.632 254.177C429.161 252.906 435.629 248.13 438.127 250.925C439.723 252.71 438.825 254.988 436.644 255.384C436.106 255.483 435.544 255.122 434.999 255.369C434.215 255.726 434.491 256.147 434.167 256.445C433.605 256.961 433.008 257.767 432.168 258.215C429.236 259.778 426.402 261.016 423.6 262.92C422.308 263.797 421.065 264.174 419.926 264.94C418.794 265.701 418.536 266.96 417.013 266.183C417.556 268.398 414.299 270.77 413.023 272.127C411.046 274.228 408.675 276.91 409.598 280.019C411.404 286.104 419.564 290.726 424.786 293.402C431.302 296.74 438.489 299.397 445.745 300.497C449.352 301.043 453.081 301.381 456.715 301.728C459.545 301.998 463.887 301.009 465.923 303.558C465.986 300.586 475.267 300.848 477.243 300.468C473.282 286.93 465.505 274.893 457.191 263.647C453.111 258.127 449.104 252.449 444.453 247.388C439.361 241.848 433.544 236.897 428.016 231.799C417.175 221.8 404.914 212.876 392.437 205.015C379.989 197.172 367.098 189.453 353.46 183.862C337.884 177.475 321.486 173.275 305.07 169.697C307.297 166.86 310.919 165.476 313.77 163.4C314.769 162.673 316.118 160.929 317.415 160.69C318.819 160.432 319.925 161.943 320.925 162.701C323.794 164.878 325.778 163.953 329.065 163.822C331.031 163.744 335.688 164.839 336.517 162.179C337.62 163.647 336.021 164.824 335.203 165.9C335.798 166.731 336.278 165.869 336.867 165.739C337.048 165.589 337.229 165.438 337.41 165.288C337.702 164.865 337.966 164.863 338.2 165.279C338.551 165.807 338.904 165.691 339.259 164.929C339.357 164.868 339.454 164.806 339.552 164.745C339.977 164.519 340.387 164.161 340.782 163.879C343.768 161.745 346.43 159.926 349.727 158.354C352.495 157.035 351.006 154.511 352.832 152.728C353.245 152.324 353.94 152.527 354.382 152.185C354.814 151.849 354.879 151.468 355.194 151.109C355.953 150.244 355.05 149.24 356.985 150.299L356.287 146.371C360.08 150.051 360.066 139.46 360.584 137.893C360.516 138.1 360.925 136.497 360.924 136.51C361.035 133.332 361.469 131.029 357.747 130.844C359.156 129.958 359.587 131.689 360.238 129.897C360.564 128.999 359.547 127.455 361.168 128.034C361.509 126.126 361.172 124.581 360.747 122.727C360.311 120.829 360.567 119.562 360.587 117.664C360.609 115.51 359.601 113.346 359.278 111.226C359.026 109.565 359.286 106.946 357.139 107.556C356.838 107.084 357.898 105.631 357.855 104.913C357.788 103.797 356.577 102.663 356.234 101.591C355.729 102.112 355.018 102.286 354.331 102.051C354.976 100.595 354.371 100.106 353.754 98.8504C353.4 98.1314 353.613 97.3376 352.856 96.8222C352.422 96.5265 351.682 97.0245 351.342 96.6779C350.613 95.9356 350.883 94.9509 350.381 93.9727C349.752 92.7461 348.314 91.8092 347.324 90.8885C341.756 85.7134 335.709 81.7582 328.303 79.736C320.831 77.6959 312.12 76.965 304.674 79.3182C301.698 80.2586 299.055 80.1622 296.376 81.9186C295.508 82.4885 295.414 82.3359 294.973 83.2859C294.871 83.5074 295.796 84.0971 295.23 84.4592C294.615 84.8525 293.935 84.0528 293.621 83.3889C289.746 86.1941 286.115 89.9337 283.907 94.2217C281.714 98.4828 281.513 103.489 280.675 108.119C276.812 103.706 271.588 101.59 265.907 103.712C260.956 105.56 257.119 109.624 256.151 114.888C255.56 118.098 256.205 121.348 257.663 124.243C258.293 125.494 259.056 126.88 260.215 127.722C261.132 128.387 262.701 128.294 263.133 129.495C263.795 131.335 259.974 135.308 258.982 136.918C257.188 139.832 255.521 142.841 254.252 146.024C249.702 139.597 245.346 132.577 240.172 126.65C235.289 121.057 229.468 116.04 223.759 111.312C211.909 101.499 199.588 92.2804 186.333 84.4628C173.991 77.1835 159.083 73.1421 144.699 74.571C130.645 75.9676 119.885 84.8561 110.831 95.1077C93.4213 114.819 82.7584 142.913 81.7168 169.152C81.4037 177.034 82.0042 184.813 83.9509 192.459C84.8782 196.099 84.7435 199.679 85.2823 203.366C85.8905 207.526 86.9423 211.67 87.9594 215.744C91.8337 231.265 96.77 246.774 102.309 261.78C105.189 269.584 108.674 277.213 113.388 284.094C115.565 287.273 118.386 289.76 120.729 292.778C123.002 295.705 123.603 299.298 124.102 302.89C125.301 311.503 126.096 320.152 126.817 328.814C127.123 332.486 127.48 336.125 127.966 339.771C128.39 342.949 127.324 342.793 124.65 343.872C125.192 341.016 112.416 342.96 111.21 343.155C109.897 343.367 108.507 343.37 107.473 343.538C106.317 343.726 105.186 343.999 103.854 343.96C101.897 343.904 98.2331 343.404 97.486 345.902C96.9718 343.006 93.5751 346.173 96.0882 345.635C93.5087 345.924 90.8765 345.444 88.2659 345.687C85.2739 345.965 82.2562 346.229 79.2852 346.679C77.2169 346.993 75.2432 347.789 73.1713 348.02C70.52 348.317 67.7531 348.289 65.076 348.525C55.2016 349.396 44.9667 351.55 35.3683 354.016C33.194 354.575 30.6959 354.972 28.6187 355.868C28.0625 356.108 27.5621 356.644 27.0293 356.85C26.1361 357.195 26.2583 356.957 25.4651 357.115C20.7125 358.065 15.8097 359.617 11.0578 360.834C8.422 361.51 4.13459 362.119 1.9843 363.959C1.0205 364.783 0.178228 366.244 1.7227 367.18C2.95648 367.928 4.71766 366.734 5.71618 366.089C4.82661 368.407 3.14864 369.563 4.05497 372.2C4.77034 374.285 6.38545 376.854 8.87038 375.509C9.20322 376.283 9.33791 377.823 10.3179 378.107C11.1985 378.363 11.836 377.247 12.6986 377.51C13.0075 377.604 12.8902 378.187 13.1668 378.34C13.6433 378.602 14.1264 378.714 14.6723 378.898C15.1417 379.058 15.8971 379.385 16.3868 379.419C16.6975 379.441 17.4296 378.91 17.4272 378.91C18.1408 379.018 18.5245 380.384 19.0382 380.778C19.705 381.291 20.2558 381.407 21.0909 381.593C22.8269 381.978 25.0646 382.639 26.2104 380.862C25.9482 382.131 27.674 382.007 28.4355 382.168C28.3511 381.499 27.9817 380.887 27.4118 380.52C29.1143 380.632 28.4241 382.324 29.6824 382.772C30.5792 383.089 30.4774 382.281 31.1635 382.192C32.0674 382.074 32.7534 382.73 34.165 382.124C34.4709 383.484 34.5829 384.855 36.2524 385.058C37.2324 385.177 39.5174 383.407 39.3881 384.88C41.5773 384.238 42.4082 384.672 43.5522 386.602C43.7455 385.417 44.6812 385.761 45.5396 385.688C46.9003 385.571 46.935 385.681 47.9898 384.911C48.0862 384.841 48.9159 382.94 49.2847 384.121C49.4505 384.65 48.3544 385.895 47.9485 386.212C48.4526 386.467 50.1042 387.36 50.7394 387.196C51.2889 387.054 51.2907 386.114 51.951 386.066C51.7894 386.606 51.6283 387.146 51.4661 387.686C52.7508 387.873 53.8241 387.014 54.8388 386.384C55.8062 388.83 58.5713 387.452 60.075 389.293C60.8706 390.267 60.9077 391.006 62.4235 391.261C63.9745 391.521 65.3292 390.841 66.6474 392.12C66.2296 391.326 65.1886 390.668 66.223 389.815C66.927 390.814 67.2904 392.017 68.1021 392.946C68.214 392.474 68.326 392.001 68.4379 391.528C70.5541 393.792 73.218 393.812 75.9286 395.066V393.41C77.8694 396.372 77.973 394.498 80.2915 393.288C80.134 394.159 79.976 395.03 79.8186 395.9C81.4869 395.775 83.0458 397.751 84.4155 396.072C85.2428 397.46 86.2455 396.777 87.6014 397.217C88.3724 397.468 88.9465 398.227 89.6966 398.502C90.8214 398.914 91.1573 398.895 92.2162 399.253C93.1579 399.572 93.6931 400.192 94.8718 400.391C95.6374 400.52 96.3318 400.51 97.0646 400.475C97.3477 400.461 97.2543 399.824 97.8835 399.973C98.8563 400.203 99.5806 401.423 100.281 402.049C101.335 399.4 104.285 402.948 105.711 403.42C105.847 402.741 105.823 401.923 106.314 401.365C106.891 402.629 107.111 403.692 108.309 404.506C109.001 404.976 110.016 405.313 110.815 405.484C111.319 405.593 112.236 405.463 112.554 405.618C113.095 405.884 113.294 406.592 113.841 406.658C114.162 406.697 114.639 405.851 114.879 405.917C115.981 406.218 116.593 407.556 117.705 408.279C121.015 410.433 125.18 410.642 128.868 411.114C129.793 411.232 129.927 410.979 130.679 411.522C131.08 411.813 130.898 412.695 131.391 412.942C133.25 413.874 133.251 411.886 133.641 410.651C134.256 411.462 134.362 412.533 135.203 413.179C135.662 413.165 136.122 413.176 136.58 413.21C136.839 413.505 137.009 413.845 137.088 414.232C138.201 414.983 139.463 414.722 140.613 415.286C140.99 415.471 141.658 416.59 142.122 416.912C142.954 417.488 144.24 417.795 145.19 418.045C147.182 418.57 150.039 417.873 151.224 419.953C152.798 418.266 152.189 420.281 153.258 420.704C153.889 420.954 154.837 419.96 155.537 420.059C156.797 420.236 157.251 421.601 157.655 422.593C158.422 422.421 157.895 420.25 157.874 419.774C158.827 419.662 159.039 422.173 159.204 422.725C160.709 422 158.238 419.744 159.857 419.02C159.709 420.942 161.24 422.525 158.505 422.8C158.882 423.958 167.706 425.244 168.319 424.222C168.455 426.111 169.724 424.347 170.192 423.7C170.245 424.802 169.87 426.366 171.106 426.879C171.947 427.227 173.842 426.327 174.172 425.503C174.549 426.762 175.18 426.721 175.964 427.52C176.503 428.069 176.858 429.021 177.423 429.481C178.462 430.326 180.397 430.197 181.608 430.008C183.979 429.638 183.699 429.184 184.543 431.648C184.734 430.713 185.333 428.757 186.377 430.211C187.041 431.135 185.627 433.171 185.218 433.982C186.132 433.48 187.038 432.885 188.078 432.669C188.136 432.989 188.189 433.669 188.036 433.965C188.067 433.905 189.176 434.649 189.587 434.854C189.488 434.805 189.912 432.954 189.9 433.014C191.362 433.917 190.348 435.643 191.643 436.533C191.978 436.763 192.763 436.495 193.168 436.635C193.872 436.879 194.482 437.539 195.108 437.925C194.608 437.255 194.68 436.13 194.714 435.356C195.033 435.532 195.26 436.19 195.582 436.242C195.703 436.262 196.963 436.429 196.955 436.423C198.266 437.341 197.996 437.457 196.87 438.561C197.273 439.193 198.954 438.095 199.409 437.912C199.504 438.16 199.529 439.057 199.708 439.218C199.816 439.484 199.925 439.749 200.034 440.015C200.37 439.765 200.73 439.681 201.115 439.764C201.358 439.849 203.255 440.621 203.384 440.357C202.969 440.222 202.592 440.016 202.256 439.739C203.351 438.755 204.071 438.232 205.079 439.653C205.206 439.832 204.77 440.475 204.899 440.709C205.381 441.578 206.371 442.269 207.044 442.977C207.322 442 206.674 439.552 208.22 439.641C209.455 439.712 210.394 442.704 209.967 443.634C210.458 443.097 213.389 442.564 213.942 442.731C215.506 443.205 215.067 444.652 216.992 442.533C218.304 443.438 217.147 443.781 217.384 444.885C217.73 444.958 218.058 444.872 218.369 444.628C218.137 449.32 221.599 445.735 223.847 446.452C224.729 446.733 224.955 447.735 225.902 448.027C226.403 448.182 226.96 447.816 227.447 447.905C227.838 447.85 228.226 447.781 228.611 447.699C229.1 447.454 229.329 447.727 229.299 448.52C230.084 448.927 229.787 449.086 230.706 449.165C231.297 449.217 231.841 448.601 232.514 448.706C233.673 448.888 233.52 449.778 234.261 450.244C234.928 450.663 235.68 450.649 236.501 450.568C236.92 450.527 238.095 449.987 238.236 449.986C239.114 449.974 238.638 449.787 239.691 450.54C240.511 451.128 240.856 451.509 241.862 451.78C243.017 452.089 245.066 452.766 245.843 451.932C246.892 453.505 247.714 452.35 249.099 452.454C249.808 452.508 249.921 452.784 250.552 452.894C251.574 453.073 252.85 452.918 253.938 453.267C255.651 453.818 255.845 454.095 257.596 454.169C257.912 454.045 258.228 453.922 258.544 453.798C258.639 454.326 258.887 454.756 259.29 455.089C260.27 455.295 260.913 454.8 261.722 454.259C262.324 456.134 264.278 456.298 265.949 456.545C268.646 456.943 271.225 457.16 273.825 458.047C276.022 458.795 278.222 459.635 280.335 460.594C282.194 461.437 283.949 462.699 286.052 462.107C290.819 460.764 295.438 455.872 299.425 453.062C304.148 449.735 309.242 446.994 314.177 444.002C333.824 432.093 354.581 422.019 373.953 409.666C384.529 402.923 394.342 394.91 405.7 389.454C404.083 396.136 401.331 402.918 401.828 409.913C402.028 412.732 402.858 416.062 405.044 418.03C407.747 420.463 410.758 418.914 413.343 417.176C418.882 413.452 422.575 408.017 426.721 402.914C431.624 396.878 435.427 390.392 439.028 383.512C439.891 384.723 439.235 386.752 439.247 388.095C439.264 389.808 439.726 391.459 440.521 392.988C442.572 396.936 446.475 397.893 450.001 395.188C456.788 389.983 460.727 380.714 464.364 373.249C466.438 377.107 469.382 381.965 474.364 379.209C478.474 376.934 480.889 371.853 482.146 367.548C485.817 354.984 484.654 342.186 485.218 329.307Z" fill="#232323"/>
<path fill-rule="evenodd" clip-rule="evenodd" d="M478.984 253.839C478.515 252.7 478.309 252.886 479.171 251.782C479.843 252.444 479.306 252.99 478.984 253.839ZM499.757 322.749C498.438 319.001 499.253 314.932 498.452 311.088C498.085 309.325 497.505 307.614 497.296 305.818C497.203 305.022 496.494 301.435 496.977 300.871C495.49 299.97 495.485 299.304 495.141 297.539C495.671 296.977 495.605 296.497 494.941 296.099C494.508 295.575 494.074 295.05 493.64 294.525C495.537 295.452 494.414 293.079 494.221 291.711C494.068 290.63 493.965 289.502 493.605 288.466C493.161 287.192 492.174 286.548 494.226 286.548C493.551 285.78 492.541 284.987 492.205 284.047C491.721 282.693 492.519 280.905 491.533 279.709C490.983 279.042 488.147 278.781 488.644 277.341C488.897 276.607 490.047 277.155 490.402 276.64C491.8 274.619 487.673 273.782 487.471 272.922C487.209 271.808 488.699 271.559 488.791 270.516C488.88 269.496 487.294 267.82 486.875 266.908C486.304 267.047 485.678 267.95 485.024 267.518C484.9 267.437 485.087 263.906 484.938 263.437C484.792 262.976 484.493 261.754 484.387 261.527C483.964 260.629 482.752 260.191 482.56 259.13C482.445 258.497 484.927 257.537 482.081 257.508C483.103 255.706 481.23 254.611 480.548 253.071C479.672 251.091 479.155 248.953 478.255 246.963C477.38 245.029 476.401 243.194 475.139 241.483C473.997 239.935 473.503 238.445 472.59 236.81C472.408 236.666 472.225 236.522 472.042 236.379C471.281 236.489 471.037 236.142 471.31 235.338C470.727 234.476 470.294 233.555 469.781 232.654C469.184 231.607 468.379 230.753 467.762 229.735C466.944 228.385 466.702 226.863 465.777 225.509C464.64 223.843 463.362 222.374 462.307 220.646C460.987 218.48 459.524 217.135 457.863 215.458C457.072 214.659 456.977 212.665 456.007 211.531C454.952 210.296 453.91 209.961 453.178 208.34C452.226 206.231 450.83 205.224 449.47 203.401C448.348 201.898 447.801 200.169 446.565 198.715C445.503 197.465 444.296 196.324 443.162 195.139C441.73 193.643 440.673 191.825 439.182 190.403C439.397 190.608 437.885 189.41 437.961 189.448C437.626 189.277 436.546 189.14 436.704 189.233C434.454 187.911 431.635 183.071 428.25 185.635C426.469 186.984 427.323 189.457 428.567 190.801C429.101 191.378 431.875 194.223 432.474 193.023C433.122 193.94 435.114 198.373 436.772 197.103C436.603 198.618 437.481 198.115 438.06 199.14C438.442 199.816 438.256 200.147 438.534 201.202C439.298 204.102 442.215 206.934 443.768 209.463C447.635 215.756 451.9 221.725 455.77 228.026C459.458 234.03 463.589 239.728 467.128 245.814C471.152 252.734 476.166 259.266 479.198 266.727C479.301 266.977 480.143 267.374 480.352 267.751C480.717 268.405 480.638 269.536 480.873 270.278C481.686 272.847 483.005 275.376 484.508 277.504C485.826 279.371 485.922 281.909 486.829 284.099C488.108 287.187 489.459 290.241 490.702 293.344C492.636 298.173 493.946 302.802 495.283 307.844C496.149 311.111 496.838 314.376 497.114 317.75C497.368 320.853 497.43 324.085 498.579 327.023C499.362 325.813 500.284 324.247 499.757 322.749Z" fill="#232323"/>
<path fill-rule="evenodd" clip-rule="evenodd" d="M57.2846 389.234C55.8946 388.953 54.5866 388.579 54.2921 386.983C54.0903 387.735 53.8892 388.488 53.6874 389.24C55.3798 389.623 57.0727 390.007 58.765 390.39C58.3699 389.694 58.0814 389.395 57.2846 389.234Z" fill="#232323"/>
<path fill-rule="evenodd" clip-rule="evenodd" d="M61.0144 127.308C61.1198 126.857 61.2563 126.416 61.4245 125.986C61.5388 126.406 62.0992 127.313 61.7729 127.709C61.3575 128.211 60.9372 127.927 61.0144 127.308ZM67.8287 114.342C68.2848 114.544 69.272 114.583 69.8383 114.753C68.3692 116.016 68.1106 115.644 66.2112 115.498C66.1268 114.219 66.6464 113.822 67.8287 114.342ZM55.0952 145.997C55.2921 146.002 55.4897 146.007 55.6878 146.012C55.6998 145.455 55.6854 144.899 55.6435 144.344C57.6465 144.781 56.5127 141.281 55.8836 140.555C57.8375 140.621 58.7893 134.434 59.4083 133.242C59.9579 132.184 60.5804 131.775 60.9821 130.484C61.3335 129.354 61.7136 128.338 62.2207 127.269C63.3856 124.813 64.9139 122.581 64.632 119.718C65.6191 121.867 66.4871 119.722 67.1133 118.695C68.122 117.039 70.583 114.927 70.8446 112.961C71.0757 111.231 69.7898 111.139 70.5489 109.534C71.3163 107.91 71.9473 108.072 73.2918 107.553C74.1862 107.207 74.3639 107.627 74.9949 106.498C75.4038 105.767 75.2595 105.222 75.7833 104.623C75.9994 104.811 76.2454 104.889 76.5208 104.857C76.9458 104.296 77.2248 103.671 77.3571 102.982C77.7037 102.051 77.8713 101.197 78.3933 100.311C78.8884 99.4718 79.7672 97.2264 80.2329 96.8217C80.7274 96.3919 83.532 96.6104 83.52 96.6259C84.6784 95.1689 82.5526 93.7172 85.4961 94.0243C84.9148 92.9419 86.9568 91.5986 87.5494 90.9964C89.0298 89.4932 89.1478 88.7976 89.4603 86.9071C89.6189 85.9433 88.5833 86.0547 89.9715 85.835C90.5456 85.7446 91.0963 86.4785 91.5106 86.3707C93.3394 85.8966 91.4262 85.987 91.9308 85.2417C92.0901 85.0053 92.9036 84.051 92.8958 84.0612C92.8563 84.1091 93.079 83.2309 93.2634 83.0052C93.613 82.9753 93.9572 82.9142 94.2954 82.8221C94.4672 82.4748 94.6193 82.1193 94.751 81.7553C96.0746 80.6514 98.0548 80.1575 98.9701 78.9447C99.5622 78.1605 99.385 77.3925 100.15 76.6106C100.879 75.8659 101.842 76.4053 101.987 74.7232C102.17 72.583 99.8717 71.6306 98.9312 73.7905C96.3811 70.6495 85.7218 82.1737 84.4904 83.6793C79.1416 90.2152 73.8844 96.9127 69.4971 104.14C65.2222 111.182 61.7136 118.592 58.9713 126.359C57.6489 130.104 56.8438 133.833 56.0362 137.706C55.765 139.004 53.7387 144.785 54.5821 146.078C54.7527 146.051 54.9239 146.024 55.0952 145.997Z" fill="#232323"/>
<path fill-rule="evenodd" clip-rule="evenodd" d="M476.117 306.275C477.018 305.674 477.018 305.674 477.176 304.538C475.968 304.758 475.968 304.758 476.117 306.275Z" fill="#232323"/>
<path fill-rule="evenodd" clip-rule="evenodd" d="M32.0289 382.676C32.0404 382.674 32.0489 382.677 32.0556 382.684C32.0362 382.659 31.9658 382.586 32.0289 382.676Z" fill="#232323"/>
<path fill-rule="evenodd" clip-rule="evenodd" d="M31.4242 383.284C31.7026 383.886 32.1497 384.036 32.7663 383.732C33.0094 384.079 30.658 381.566 31.4242 383.284Z" fill="#232323"/>
<path fill-rule="evenodd" clip-rule="evenodd" d="M72.0867 108.695C70.6757 111.461 72.4429 109.449 72.3525 110.347C72.4118 109.757 72.6566 108.916 72.0867 108.695Z" fill="#232323"/>
<path fill-rule="evenodd" clip-rule="evenodd" d="M301.478 151.509C302.089 156.47 308.875 154.124 310.402 151.123C311.513 148.939 314.32 140.307 311.3 138.484C309.061 137.132 308.583 142.958 308.031 144.259C307.106 146.439 306.384 144.895 304.327 145.454C302.058 146.071 301.225 149.453 301.478 151.509Z" fill="#232323"/>
<path fill-rule="evenodd" clip-rule="evenodd" d="M294.063 142.431C296.489 142.969 298.867 142.692 300.59 140.776C301.544 139.715 302.813 137.611 301.095 136.584C299.538 135.655 297.773 137.832 296.133 137.382C293.903 136.769 295.052 134.378 294.287 132.799C291.475 134.418 289.907 141.507 294.063 142.431Z" fill="#232323"/>
<path fill-rule="evenodd" clip-rule="evenodd" d="M296.578 154.955C294.24 154.951 294.221 157.826 295.441 159.059C296.609 160.238 299.563 161.432 301.146 160.515C304.27 158.705 298.471 155.142 296.578 154.955Z" fill="#232323"/>
<path fill-rule="evenodd" clip-rule="evenodd" d="M160.528 269.316C161.027 269.559 162.499 270.806 163.119 270.243C162.244 269.361 161.368 268.48 160.493 267.598C160.009 268.128 159.677 268.903 160.528 269.316Z" fill="#232323"/>
<path fill-rule="evenodd" clip-rule="evenodd" d="M149.478 143.148C149.229 143.334 148.98 143.519 148.732 143.703C149.57 144.402 149.549 144.61 150.395 143.948C150.144 143.618 149.838 143.351 149.478 143.148Z" fill="#232323"/>
<path fill-rule="evenodd" clip-rule="evenodd" d="M307.953 307.721C307.483 306.877 306.596 308.434 305.995 308.687C305.018 309.098 304.217 306.919 304.497 309.531C302.288 308.52 300.948 310.839 299.524 312.048C297.512 313.755 295.051 314.681 293.709 317.105C300.026 318.583 306.967 313.137 311.678 309.56C312.447 308.975 316.289 306.028 313.685 305.743C312.62 305.627 308.744 309.14 307.953 307.721Z" fill="#232323"/>
<path fill-rule="evenodd" clip-rule="evenodd" d="M306.08 302.608C307.318 301.633 304.648 301.544 304.226 301.442C304.263 302.217 304.298 302.991 304.335 303.767C304.932 303.404 305.514 303.018 306.08 302.608Z" fill="#232323"/>
<path fill-rule="evenodd" clip-rule="evenodd" d="M301.431 305.858C301.801 305.627 302.832 304.906 302.131 304.368C301.497 304.772 301.044 305.43 300.944 306.182C301.107 306.074 301.269 305.966 301.431 305.858Z" fill="#232323"/>
<path fill-rule="evenodd" clip-rule="evenodd" d="M199.117 242.997C198.327 243.307 197.972 243.797 198.056 244.469C199.271 244.22 199.039 243.073 199.117 242.997Z" fill="#232323"/>
<path fill-rule="evenodd" clip-rule="evenodd" d="M451.031 74.3792C458.712 77.3508 467.004 78.6381 474.869 81.083C476.838 81.695 482.71 82.5304 483.125 84.455C483.367 85.5803 482.101 87.3742 481.586 88.3207C480.704 89.9421 479.896 91.56 479.125 93.2355C475.599 100.908 472.384 108.568 468.352 116.021C467.744 117.142 466.31 122.139 464.97 120.158C464.363 119.26 464.394 118.076 463.214 117.388C462.607 117.034 460.644 117.236 460.949 116.083C461.357 116.156 461.766 116.229 462.175 116.301C461.69 115.558 461.494 114.662 460.877 113.999C460.493 113.586 459.917 113.488 459.605 112.994C459.173 112.312 459.387 111.346 459.129 110.597C458.873 109.851 458.293 109.227 457.877 108.566C455.406 104.644 453.844 100.463 452.038 96.2357C450.251 92.0523 448.093 88.1039 446.576 83.8034C444.972 79.2611 443.266 74.754 441.375 70.3214C442.785 70.1764 444.189 71.3744 445.355 71.961C447.187 72.8827 449.116 73.6385 451.031 74.3792ZM456.878 120.714C456.506 120.549 456.189 120.313 455.926 120.005C458.763 117.657 457.472 120.797 456.878 120.714ZM454.108 117.858C452.798 118.579 451.809 118.902 450.59 118.599C450.474 118.571 450.491 118.129 450.286 118.089C450.106 118.055 449.881 118.206 449.726 118.17C449.198 118.05 448.499 118.766 448.199 117.887C449.859 116.913 451.377 115.492 453.226 114.864C455.796 113.992 456.314 116.643 454.108 117.858ZM446.699 114.173C444.892 115.079 443.565 116.488 441.467 116.717C439.497 116.932 437.602 116.366 435.823 115.614C439.335 113.65 443.239 112.498 446.755 110.569C447.901 109.941 449.299 108.68 450.705 108.708C452.267 108.739 452.688 110.064 453.427 111.183C451.18 112.169 448.894 113.074 446.699 114.173ZM433.46 111.89C431.727 112.769 430.077 114.169 428.143 112.919C427.831 112.717 427.678 113.032 427.51 112.216C427.333 111.357 427.988 110.616 428.593 110.15C430.016 109.056 432.363 108.967 434.032 108.45C436.694 107.626 439.31 106.405 441.879 105.329C443.658 104.584 445.411 103.467 447.333 103.134C448.818 102.877 450.877 103.668 448.966 105.077C447.226 106.361 444.29 106.945 442.275 107.808C439.298 109.085 436.348 110.425 433.46 111.89ZM429.596 103.846C429.744 103.936 429.892 104.026 430.04 104.116C430.019 104.116 430.604 103.364 430.791 103.301C431.704 102.994 432.657 102.828 433.578 102.549C435.7 101.905 437.779 101.009 439.793 100.089C441.433 99.3397 443.048 98.344 444.854 98.0544C446.417 97.8034 446.654 98.0722 447.108 99.499C443.193 100.454 439.141 101.356 435.492 103.107C433.116 104.247 430.74 106.494 428.793 103.962C429.061 103.923 429.328 103.885 429.596 103.846ZM430.545 97.1052C431.692 97.5934 434.044 95.7425 435.179 95.3384C436.41 94.8992 437.565 94.4732 438.715 93.866C439.733 93.3272 442.991 91.0832 444.143 92.1885C445.909 93.8817 440.829 95.5102 440.034 95.8093C436.699 97.0639 433.223 98.3028 430.094 100.002C430.244 99.0368 430.394 98.0712 430.545 97.1052ZM433.599 89.1468C434.076 90.0122 441.015 84.7022 441.762 87.1492C442.335 89.0266 434.768 91.8772 433.325 92.0521C433.439 91.0953 434.122 90.0971 433.599 89.1468ZM434.788 82.6863C434.497 80.777 434.756 80.7255 436.241 80.1766C437.374 79.758 438.813 78.6971 439.007 80.8084C439.172 82.6162 435.081 84.6128 434.788 82.6863ZM435.998 75.5783C436.121 74.4851 437.278 75.6339 437.42 76.1399C437.797 77.4864 436.676 77.4487 435.665 77.6951C435.792 76.9923 435.903 76.2857 435.998 75.5783ZM446.953 64.9266C446.688 64.7334 445.508 64.9227 445.15 64.8849C444.269 64.7913 444.233 64.143 443.346 65.0075C443.281 64.9689 443.268 64.4849 443.206 64.4776C443.175 64.4737 442.384 64.3822 442.112 64.2915C441.455 64.0728 440.857 63.8481 440.224 63.5269C439.552 63.186 438.826 62.6302 438.098 62.4056C437.791 62.3111 437.517 62.1376 437.182 62.1674C436.313 62.2451 436.693 62.7588 435.988 63.051C435.554 63.2311 435.1 62.7947 434.564 63.1614C434.101 63.478 433.976 64.2513 433.851 64.7239C433.395 66.4439 433.157 68.2338 432.723 69.9657C430.502 78.822 427.644 87.5183 425.571 96.4162C424.573 100.703 423.497 105.036 423.129 109.422C422.863 112.586 421.694 117.398 424.309 119.857C426.21 121.644 429.203 121.887 431.663 122.375C435.364 123.109 438.921 124.381 442.647 125.059C447.09 125.868 451.437 126.787 455.83 127.829C457.704 128.274 459.506 129.132 461.363 129.533C462.499 129.778 463.862 128.555 464.468 129.604C465.373 127.782 467.679 128.287 468.892 126.863C469.605 126.026 469.938 124.638 470.472 123.691C471.274 122.27 472.188 120.911 473.017 119.505C476.305 113.923 479.212 108.236 482.023 102.416C484.708 96.8586 488.098 91.3999 490.084 85.5487C490.873 83.2259 490.59 81.0606 489.204 79.045C488.193 77.5748 486.111 75.49 484.251 77.0804C484.736 75.5745 481.292 74.9326 480.288 74.9062C480.273 74.9061 480.333 75.9574 480.064 75.9963C480.16 75.9825 478.732 73.9595 478.274 73.767C476.916 73.1938 475.273 72.539 473.846 72.1423C472.537 71.7786 471.244 71.7557 469.953 71.3063C468.387 70.7621 466.893 70.0282 465.324 69.491C463.809 68.9725 462.107 68.3379 460.518 68.1149C459.14 67.9213 457.988 68.0985 456.658 67.5548C455.013 66.8821 453.626 66.4918 451.843 66.1866C450.301 65.9227 448.239 65.8664 446.953 64.9266Z" fill="#232323"/>
<path fill-rule="evenodd" clip-rule="evenodd" d="M66.5033 299.618C66.7574 299.063 67.0107 298.509 67.2648 297.955C67.5788 298.921 67.6668 299.402 66.5033 299.618ZM66.8414 302.179C66.2909 302.27 66.5079 300.666 66.5079 300.386C67.4585 300.887 66.6712 301.486 66.8414 302.179ZM65.9833 297.55C66.4525 297.293 66.9217 297.036 67.3909 296.778C66.7375 297.903 66.9939 297.2 67.2634 297.951C66.7706 298.083 66.2914 297.929 65.9833 297.55ZM63.2024 306.343C61.4436 312.273 55.8569 316.949 49.9563 319.372C46.5656 320.763 43.232 321.111 39.5704 320.956C38.1582 320.896 36.4964 320.47 35.1373 320.549C34.0909 320.61 34.138 320.652 33.2713 321.476C32.8879 320.819 33.1656 320.359 32.3964 319.977C31.4366 319.501 31.0382 320.055 30.5622 320.715C29.9391 320.115 29.6841 319.802 28.8768 319.446C28.9022 319.457 28.104 319.429 28.1367 319.438C27.9924 319.397 27.1243 318.878 26.8524 318.784C25.737 318.395 24.4473 318.235 23.4181 317.677C22.5178 317.19 21.7763 315.823 20.7462 316.874C20.7453 315.118 18.2 314.39 17.007 313.47C15.1428 312.033 13.6607 309.905 12.7314 307.847C11.7403 305.653 11.4095 303.548 10.9457 301.287C10.6217 299.706 8.49977 297.422 9.77402 295.827C10.0776 296.496 9.93511 297.181 10.4393 297.787C10.8931 296.974 11.1427 296.065 11.3478 295.176C11.4485 294.741 12.0321 293.462 11.9658 293.083C11.8311 292.306 10.7964 292.264 11.37 291.312C12.5598 292.515 13.5201 290.402 12.6211 289.56C12.1773 290.025 12.0144 290.553 11.8097 291.129C10.6399 288.935 13.8776 289.642 13.1693 287.661C14.351 287.45 15.0303 287.173 15.4795 286.088C15.9792 284.881 15.6116 284.618 16.7461 283.82C17.1363 283.546 18.2399 283.152 18.4419 282.701C18.8326 281.829 17.8383 281.571 18.7092 280.754C19.0032 281.233 20.1495 282.182 20.7771 281.279C20.9028 281.099 20.375 280.971 20.7589 280.556C21.3275 279.943 21.9637 279.34 22.9253 279.469C22.1639 277.701 27.0294 277.561 28.2755 277.143C29.5244 276.725 30.584 276.451 31.9081 276.354C33.2309 276.257 33.2967 275.897 34.4167 275.157C34.5115 276.216 34.7856 275.983 35.5956 276.17C35.7903 275.859 35.99 275.824 36.1942 276.065C36.3975 276.245 36.6461 276.329 36.9393 276.319C37.384 276.34 37.8886 276.286 38.3547 276.295C39.4488 276.315 40.5773 276.23 41.6506 276.252C41.9274 276.209 42.186 276.119 42.4284 275.983C42.5295 276.16 42.6312 276.338 42.7319 276.515C43.3005 276.582 43.3446 277.244 44.0438 276.52C44.2508 277.44 44.8452 276.961 45.4733 277.211C46.046 277.439 46.1372 277.803 46.6659 278.057C47.0135 278.319 47.386 278.354 47.7844 278.162C48.1634 278.423 48.5482 278.676 48.9384 278.922C49.6577 279.3 50.5054 279.531 51.2632 279.829C51.7674 280.022 52.2684 280.223 52.7653 280.431C52.7802 280.989 53.0493 281.186 53.5721 281.022C54.0445 281.389 54.1775 281.374 54.6358 282C55.6741 283.417 56.5952 284.518 57.9067 285.785C63.6068 291.291 65.358 299.077 63.2024 306.343ZM64.9518 282.927C62.3784 279.725 58.7358 276.058 55.4626 274.036C53.8035 273.01 51.4747 271.17 49.4458 270.627C48.9648 270.499 48.4669 270.49 47.9941 270.355C47.6288 270.251 47.43 269.903 47.0135 269.84C46.7221 269.796 46.6899 270.402 46.3804 270.346C45.7333 270.229 45.3231 269.633 44.8661 269.259C43.8846 270.831 43.3518 268.188 41.9106 269.965C40.1952 267.466 36.1656 268.012 33.4265 268.138C32.6142 268.175 32.2326 268.444 31.5124 268.643C30.8422 268.828 30.7759 268.78 30.0439 268.775C28.2211 268.762 26.6029 268.975 24.9179 269.719C22.0872 270.968 19.4888 272.915 16.8001 274.421C13.7951 276.104 11.0864 278.246 8.78748 280.707C0.476752 289.606 -1.74546 302.596 4.88124 312.913C15.4069 329.299 42.5577 331.051 57.9426 319.932C69.8287 311.342 74.3521 294.621 64.9518 282.927Z" fill="#232323"/>
<path fill-rule="evenodd" clip-rule="evenodd" d="M201.517 11.1885C199.528 10.6102 197.066 9.48075 194.854 9.86574C192.503 10.2745 191.557 12.1455 189.848 13.2702C185.201 16.3286 182.495 11.7703 179.941 9.27229C177.53 6.9136 174.588 6.34106 171.186 7.79042C169.831 8.36819 164.12 11.0155 165.116 12.7116C165.832 13.9322 168.653 12.8365 169.616 12.5699C171.705 11.9922 173.645 11.4864 175.781 12.329C179.789 13.9084 180.829 18.2396 185.678 18.9149C190.692 19.6135 190.857 15.8217 194.435 14.3944C196.834 13.438 198.505 15.1313 200.819 14.7939C203.025 14.4728 204.045 11.9225 201.517 11.1885Z" fill="#232323"/>
<path fill-rule="evenodd" clip-rule="evenodd" d="M161.157 26.3802C162.9 26.7091 164.038 23.7709 165.129 23.0256C166.938 21.7903 170.076 21.5412 171.918 22.7847C175.517 25.2116 174.277 30.4513 179.401 31.8171C183.98 33.038 186.137 27.7953 189.992 26.49C192.233 25.731 194.694 25.2341 193.819 22.5106C193.215 20.6274 191.436 20.1436 189.501 20.8671C186.176 22.1093 185.047 27.1698 181.105 27.2603C177.027 27.3539 176.585 22.2435 174.834 20.0175C172.165 16.6249 166.678 15.8053 163.56 19.0494C162.618 20.0281 157.838 25.7553 161.157 26.3802Z" fill="#232323"/>
</svg>
