<svg width="77" height="77" viewBox="0 0 77 77" fill="none" xmlns="http://www.w3.org/2000/svg">
<path fill-rule="evenodd" clip-rule="evenodd" d="M73.0979 41.2639C73.3815 40.5403 73.6641 39.8166 73.9477 39.0936C74.2981 40.3548 74.3963 40.9822 73.0979 41.2639ZM73.4752 44.6064C72.8609 44.7258 73.103 42.632 73.103 42.2671C74.1639 42.9198 73.2853 43.7023 73.4752 44.6064ZM72.5176 38.5658C73.0412 38.2296 73.5648 37.8939 74.0884 37.5577C73.3592 39.0259 73.6453 38.1085 73.9461 39.0892C73.3962 39.2608 72.8614 39.0605 72.5176 38.5658ZM69.4143 50.0406C67.4515 57.7794 61.2172 63.8827 54.6324 67.0442C50.8485 68.8602 47.1285 69.3147 43.0423 69.1122C41.4664 69.034 39.6119 68.4777 38.0952 68.5812C36.9275 68.6609 36.9801 68.716 36.0129 69.7901C35.585 68.9339 35.8949 68.333 35.0366 67.8344C33.9655 67.2126 33.5209 67.9368 32.9897 68.798C32.2944 68.0149 32.0098 67.606 31.1089 67.141C31.1372 67.1559 30.2465 67.119 30.2829 67.1311C30.1219 67.0772 29.1532 66.4003 28.8498 66.2771C27.6051 65.7697 26.1659 65.5611 25.0174 64.8331C24.0126 64.1975 23.1852 62.4129 22.0356 63.7842C22.0346 61.4928 19.1942 60.5424 17.8629 59.3422C15.7826 57.4668 14.1286 54.69 13.0915 52.004C11.9855 49.1398 11.6164 46.3938 11.0988 43.442C10.7373 41.3795 8.36931 38.398 9.7913 36.3168C10.1301 37.1895 9.97107 38.0832 10.5337 38.8745C11.0401 37.8141 11.3186 36.6277 11.5475 35.4671C11.6599 34.8987 12.3112 33.2302 12.2372 32.7349C12.0868 31.7212 10.9322 31.6662 11.5723 30.4236C12.9001 31.9936 13.9717 29.2367 12.9685 28.1377C12.4732 28.7447 12.2914 29.4342 12.063 30.1859C10.7575 27.3222 14.3707 28.2445 13.5802 25.6592C14.8989 25.3835 15.657 25.0225 16.1583 23.6066C16.7159 22.0311 16.3057 21.6877 17.5717 20.6465C18.0072 20.2888 19.2388 19.7743 19.4641 19.1855C19.9001 18.048 18.7906 17.7107 19.7624 16.6448C20.0905 17.2705 21.3697 18.5092 22.0701 17.3304C22.2104 17.0955 21.6214 16.9287 22.0498 16.3872C22.6843 15.586 23.3943 14.8002 24.4674 14.9686C23.6177 12.6601 29.0473 12.4774 30.4379 11.9326C31.8315 11.3873 33.014 11.029 34.4917 10.9024C35.9678 10.7759 36.0413 10.3059 37.2911 9.34016C37.3969 10.722 37.7028 10.4182 38.6067 10.662C38.824 10.2569 39.0468 10.2113 39.2747 10.5255C39.5015 10.7599 39.779 10.87 40.1062 10.8568C40.6025 10.8848 41.1656 10.8144 41.6856 10.8259C42.9066 10.8518 44.166 10.7412 45.3637 10.7693C45.6726 10.7131 45.9612 10.5965 46.2316 10.4187C46.3446 10.6499 46.458 10.8815 46.5704 11.1132C47.2049 11.1996 47.2541 12.0636 48.0344 11.1187C48.2654 12.32 48.9288 11.6949 49.6296 12.0207C50.2687 12.3184 50.3705 12.7938 50.9604 13.1256C51.3483 13.4674 51.7641 13.5125 52.2087 13.2621C52.6316 13.6027 53.061 13.9335 53.4965 14.2543C54.2992 14.7468 55.2451 15.0484 56.0908 15.4374C56.6534 15.6895 57.2125 15.952 57.767 16.2238C57.7837 16.9513 58.084 17.2083 58.6674 16.9942C59.1946 17.4735 59.343 17.4548 59.8544 18.2709C61.0131 20.1205 62.0411 21.5573 63.5046 23.2104C69.8655 30.3972 71.8197 40.5579 69.4143 50.0406ZM71.3665 19.4805C68.4947 15.3015 64.4298 10.5161 60.7771 7.87692C58.9257 6.5386 56.3268 4.13656 54.0627 3.42888C53.5259 3.26104 52.9704 3.25002 52.4427 3.07393C52.035 2.938 51.8132 2.48347 51.3484 2.40147C51.0232 2.34424 50.9873 3.13501 50.6419 3.06237C49.9198 2.90939 49.462 2.13072 48.952 1.64371C47.8567 3.69466 47.2622 0.245408 45.6538 2.56435C43.7396 -0.697249 39.2428 0.015934 36.1861 0.180472C35.2796 0.228898 34.8537 0.579449 34.0501 0.839188C33.3021 1.08077 33.2282 1.01858 32.4114 1.01198C30.3771 0.99492 28.5713 1.27282 26.691 2.24354C23.5321 3.87407 20.6324 6.41479 17.632 8.37989C14.2785 10.5761 11.2558 13.3716 8.69037 16.5837C-0.583915 28.1982 -3.06378 45.1512 4.33124 58.6158C16.0773 80.0009 46.376 82.2863 63.5446 67.7761C76.8088 56.5649 81.8567 34.7424 71.3665 19.4805Z" fill="#DEC5E3"/>
</svg>
