<svg width="70" height="70" viewBox="0 0 70 70" fill="none" xmlns="http://www.w3.org/2000/svg">
<circle cx="35" cy="35" r="34" stroke="#774297" stroke-width="2"/>
<path d="M49.6667 23C48.3899 23.9006 46.9762 24.5895 45.48 25.04C44.677 24.1167 43.6098 23.4622 42.4228 23.1652C41.2357 22.8682 39.986 22.9429 38.8428 23.3793C37.6996 23.8156 36.718 24.5925 36.0307 25.6049C35.3434 26.6174 34.9836 27.8164 35 29.04V30.3733C32.6569 30.4341 30.3351 29.9144 28.2414 28.8606C26.1477 27.8068 24.3471 26.2515 23 24.3333C23 24.3333 17.6667 36.3333 29.6667 41.6666C26.9207 43.5306 23.6496 44.4652 20.3334 44.3333C32.3334 51 47 44.3333 47 29C46.9988 28.6286 46.9631 28.2581 46.8934 27.8933C48.2542 26.5513 49.2145 24.8569 49.6667 23V23Z" stroke="#774297" stroke-width="2" stroke-linecap="round" stroke-linejoin="round"/>
</svg>
